<svg id="Capa_1" data-name="Capa 1" xmlns="http://www.w3.org/2000/svg" viewBox="0 0 189.5 64.12"><defs><style>.cls-1,.cls-3,.cls-4{fill:none;stroke-width:2px;}.cls-1{stroke:#ccc;stroke-miterlimit:10;}.cls-2{fill:#b3b3b3;}.cls-3{stroke:gray;}.cls-3,.cls-4{stroke-linecap:round;stroke-linejoin:round;}.cls-4{stroke:#fff;}.cls-5{fill:#ccc;}</style></defs><title>cerrar</title><rect class="cls-1" x="5.75" y="2.28" width="178" height="59.56" rx="29.78" ry="29.78"/><circle class="cls-2" cx="152.47" cy="32.06" r="18.68"/><line class="cls-3" x1="143.51" y1="23.1" x2="161.44" y2="41.03"/><line class="cls-3" x1="143.51" y1="41.03" x2="161.44" y2="23.1"/><line class="cls-4" x1="142.51" y1="23.1" x2="160.44" y2="41.03"/><line class="cls-4" x1="142.51" y1="41.03" x2="160.44" y2="23.1"/><path class="cls-5" d="M48.25,36.93a.61.61,0,0,1,.46.22L50,38.52a10.17,10.17,0,0,1-3.54,2.64,12.11,12.11,0,0,1-5,.94,11.76,11.76,0,0,1-4.64-.89,10.2,10.2,0,0,1-3.56-2.49,11.23,11.23,0,0,1-2.29-3.84A14.32,14.32,0,0,1,30.12,30,13.83,13.83,0,0,1,31,25a11.27,11.27,0,0,1,2.38-3.85A10.64,10.64,0,0,1,37,18.71a12.22,12.22,0,0,1,4.72-.89,11.51,11.51,0,0,1,4.47.81,11.26,11.26,0,0,1,3.41,2.2l-1.06,1.48a.88.88,0,0,1-.26.27.74.74,0,0,1-.42.11,1.32,1.32,0,0,1-.73-.32A11.12,11.12,0,0,0,46,21.65a8.39,8.39,0,0,0-4.31-1,8.64,8.64,0,0,0-3.37.64,7.35,7.35,0,0,0-2.63,1.85A8.52,8.52,0,0,0,34,26,11.76,11.76,0,0,0,33.4,30a11.47,11.47,0,0,0,.64,4,8.76,8.76,0,0,0,1.74,2.94,7.36,7.36,0,0,0,2.6,1.83,8.28,8.28,0,0,0,3.24.63,13.35,13.35,0,0,0,1.91-.12,7.84,7.84,0,0,0,1.58-.39,6.6,6.6,0,0,0,1.34-.67,9.54,9.54,0,0,0,1.24-1A.85.85,0,0,1,48.25,36.93Z"/><path class="cls-5" d="M66.32,39.48A5.58,5.58,0,0,1,65,40.64a8.08,8.08,0,0,1-1.63.8,10.36,10.36,0,0,1-1.8.47,11,11,0,0,1-1.84.16,8.54,8.54,0,0,1-3.21-.59A7,7,0,0,1,54,39.76a7.91,7.91,0,0,1-1.67-2.81,11.41,11.41,0,0,1-.6-3.85,9.78,9.78,0,0,1,.54-3.28,7.74,7.74,0,0,1,1.55-2.64,7.13,7.13,0,0,1,2.47-1.76,8.11,8.11,0,0,1,3.28-.64,7.56,7.56,0,0,1,2.79.51,6.31,6.31,0,0,1,2.22,1.46,6.68,6.68,0,0,1,1.47,2.35,9,9,0,0,1,.53,3.19,1.92,1.92,0,0,1-.15.93.62.62,0,0,1-.56.23H54.65a9.81,9.81,0,0,0,.44,2.77,5.54,5.54,0,0,0,1.08,2,4.38,4.38,0,0,0,1.66,1.18,5.69,5.69,0,0,0,2.16.39,6.32,6.32,0,0,0,1.91-.26,9.12,9.12,0,0,0,1.38-.56,10.63,10.63,0,0,0,1-.56,1.28,1.28,0,0,1,.67-.26.65.65,0,0,1,.56.28Zm-2.39-7.87a5.82,5.82,0,0,0-.29-1.88,4.23,4.23,0,0,0-.85-1.48,3.77,3.77,0,0,0-1.35-1,5.11,5.11,0,0,0-5.16.9,5.78,5.78,0,0,0-1.53,3.42Z"/><path class="cls-5" d="M73,28.41a7.57,7.57,0,0,1,2-2.69,4.27,4.27,0,0,1,2.83-1,4.42,4.42,0,0,1,1,.12,2.74,2.74,0,0,1,.87.36l-.22,2.2a.47.47,0,0,1-.5.41,3.45,3.45,0,0,1-.68-.1,4.66,4.66,0,0,0-1-.1,4,4,0,0,0-1.42.23,3.31,3.31,0,0,0-1.11.69,4.87,4.87,0,0,0-.88,1.13,9.66,9.66,0,0,0-.7,1.53V41.84h-3V25h1.69a.93.93,0,0,1,.66.18,1.13,1.13,0,0,1,.25.63Z"/><path class="cls-5" d="M85.06,28.41a7.57,7.57,0,0,1,2-2.69,4.27,4.27,0,0,1,2.83-1,4.42,4.42,0,0,1,1,.12,2.74,2.74,0,0,1,.87.36l-.22,2.2a.47.47,0,0,1-.5.41,3.45,3.45,0,0,1-.68-.1,4.66,4.66,0,0,0-1-.1,4,4,0,0,0-1.42.23,3.31,3.31,0,0,0-1.11.69,4.87,4.87,0,0,0-.88,1.13,9.66,9.66,0,0,0-.7,1.53V41.84h-3V25H84a.93.93,0,0,1,.66.18,1.13,1.13,0,0,1,.25.63Z"/><path class="cls-5" d="M93.63,27.42a9.58,9.58,0,0,1,3-2,9.26,9.26,0,0,1,3.56-.66,6.36,6.36,0,0,1,2.5.46,5.14,5.14,0,0,1,1.84,1.29,5.46,5.46,0,0,1,1.13,2A8.33,8.33,0,0,1,106,31.1V41.84h-1.31a1.28,1.28,0,0,1-.66-.14,1,1,0,0,1-.36-.56l-.33-1.59a16.37,16.37,0,0,1-1.29,1.09,7.39,7.39,0,0,1-1.33.8,7.2,7.2,0,0,1-1.48.5,8.15,8.15,0,0,1-1.75.17,6.05,6.05,0,0,1-1.84-.27,4.25,4.25,0,0,1-1.5-.82,3.87,3.87,0,0,1-1-1.38,4.83,4.83,0,0,1-.37-2,3.7,3.7,0,0,1,.55-1.91,4.8,4.8,0,0,1,1.77-1.63,11.64,11.64,0,0,1,3.2-1.17,24.42,24.42,0,0,1,4.84-.52V31.1a4.49,4.49,0,0,0-.85-3,3,3,0,0,0-2.47-1,5.3,5.3,0,0,0-1.83.27,6.85,6.85,0,0,0-1.28.61q-.54.34-.93.61a1.34,1.34,0,0,1-.77.27.84.84,0,0,1-.51-.16,1.44,1.44,0,0,1-.36-.39Zm9.53,6.86a24.62,24.62,0,0,0-3.47.32,9.92,9.92,0,0,0-2.34.67,3.23,3.23,0,0,0-1.31,1,2.1,2.1,0,0,0-.41,1.26,2.78,2.78,0,0,0,.22,1.14,2.12,2.12,0,0,0,.59.79,2.35,2.35,0,0,0,.88.45A4,4,0,0,0,98.4,40a6,6,0,0,0,1.42-.16,5.36,5.36,0,0,0,1.22-.46,6.92,6.92,0,0,0,1.09-.71,9.59,9.59,0,0,0,1-.94Z"/><path class="cls-5" d="M113.34,28.41a7.57,7.57,0,0,1,2-2.69,4.27,4.27,0,0,1,2.83-1,4.42,4.42,0,0,1,1,.12,2.74,2.74,0,0,1,.87.36l-.22,2.2a.47.47,0,0,1-.5.41,3.45,3.45,0,0,1-.68-.1,4.66,4.66,0,0,0-1-.1,4,4,0,0,0-1.42.23,3.31,3.31,0,0,0-1.11.69,4.87,4.87,0,0,0-.88,1.13,9.66,9.66,0,0,0-.7,1.53V41.84h-3V25h1.69a.93.93,0,0,1,.66.18,1.13,1.13,0,0,1,.25.63Z"/></svg>