<?xml version="1.0" standalone="no"?>
<!DOCTYPE svg PUBLIC "-//W3C//DTD SVG 1.1//EN" "http://www.w3.org/Graphics/SVG/1.1/DTD/svg11.dtd" >
<svg>
<metadata>
Created by FontForge 20090622 at Mon Sep  2 21:30:21 2019
 By deploy user
</metadata>
<defs>
<font id="HeiseiMaruGoStd-W4-AlphaNum" horiz-adv-x="1000" vert-adv-y="1000" >
  <font-face 
    font-family="HeiseiMaruGoStd-W4-AlphaNum"
    font-weight="400"
    font-stretch="normal"
    units-per-em="1000"
    panose-1="2 0 5 3 0 0 0 0 0 0"
    ascent="800"
    descent="-200"
    bbox="7 -101 983 861"
    underline-thickness="50"
    underline-position="-100"
  />
<missing-glyph horiz-adv-x="364" 
d="M33 0v666h265v-666h-265zM66 33h199v600h-199v-600z" />
    <glyph glyph-name=".notdef" horiz-adv-x="364" 
d="M33 0v666h265v-666h-265zM66 33h199v600h-199v-600z" />
    <glyph glyph-name=".null" horiz-adv-x="0" vert-adv-y="0" 
 />
    <glyph glyph-name="nonmarkingreturn" horiz-adv-x="333" 
 />
    <glyph glyph-name="Japan1.7555" 
d="M561 630v-501q0 -46 -46 -46q-45 0 -45 46v427q0 9 -3 9q-4 0 -11 -7l-41 -27q-13 -10 -28 -10q-16 0 -27.5 13.5t-11.5 30.5q0 18 18.5 34t101.5 67q24 14 45 14q22 0 35 -14t13 -36zM503 820q-182 0 -310.5 -128.5t-128.5 -310.5t128.5 -310.5t310.5 -128.5
q181 0 309.5 128.5t128.5 310.5t-128 310.5t-310 128.5zM503 861q130 0 240.5 -64.5t174.5 -175t64 -240.5t-64 -240.5t-174.5 -175t-240.5 -64.5t-240.5 64.5t-175 175t-64.5 240.5t64.5 240.5t175 175t240.5 64.5z" />
    <glyph glyph-name="Japan1.7556" 
d="M418 171h245q40 0 40 -40q0 -39 -40 -39h-300q-67 0 -67 50q0 68 161 212q15 14 44 38.5l48 41t28 27.5q32 37 32 71q0 25 -11.5 43t-29 25t-30.5 9.5t-25 2.5q-34 0 -65 -18.5t-46 -58.5q-8 -23 -17.5 -29.5t-25.5 -6.5q-19 0 -31.5 11.5t-12.5 26.5t10.5 38.5t32 50
t62 45t91.5 18.5q80 0 132.5 -41.5t52.5 -116.5q0 -57 -41 -108q-13 -17 -34.5 -36.5t-51.5 -44t-45 -38.5q-42 -37 -71.5 -68.5t-38.5 -44.5t-9 -16q0 -4 13 -4zM500 819q-119 0 -220 -59t-160 -160t-59 -220t59 -220t160 -160t220 -59t220 59t160 160t59 220t-59 220
t-160 160t-220 59zM500 860q130 0 240.5 -64.5t175 -175t64.5 -240.5t-64.5 -240.5t-175 -175t-240.5 -64.5t-240.5 64.5t-175 175t-64.5 240.5t64.5 240.5t175 175t240.5 64.5z" />
    <glyph glyph-name="Japan1.7557" 
d="M597 400q43 -8 77.5 -46.5t34.5 -102.5q0 -28 -10 -56t-32 -56t-65.5 -45t-102.5 -17q-128 0 -191 90q-20 31 -20 54q0 17 13 30t32 13q24 0 41 -32q25 -47 54.5 -61.5t73.5 -14.5q57 0 90 26t33 74q0 61 -60 86q-33 14 -118 14q-39 0 -39 39q0 40 39 40q49 0 73 3t44 16
q36 25 36 69q0 39 -26.5 61t-71.5 22q-85 0 -116 -79q-12 -28 -39 -28q-17 0 -30 11t-13 28q0 13 9.5 34t29.5 46.5t61 43.5t95 18q81 0 132 -41.5t51 -107.5q0 -51 -23 -84.5t-62 -46.5zM500 818q-182 0 -310.5 -128.5t-128.5 -310.5q0 -181 128.5 -310t310.5 -129
t310.5 129t128.5 310q0 182 -128.5 310.5t-310.5 128.5zM500 859q130 0 240.5 -64.5t175 -175t64.5 -240.5t-64.5 -240.5t-175 -175t-240.5 -64.5t-240.5 64.5t-175 175t-64.5 240.5t64.5 240.5t175 175t240.5 64.5z" />
    <glyph glyph-name="Japan1.7558" 
d="M529 272v273l-191 -273h191zM610 631v-359h41q38 0 38 -39q0 -38 -38 -38h-41v-67q0 -41 -41 -41q-40 0 -40 41v67h-232q-65 0 -65 48q0 16 22 47l255 359q23 34 51 34q50 0 50 -52zM502 819q-182 0 -310.5 -128.5t-128.5 -310.5q0 -119 59 -220t160 -160t220 -59t220 59
t160 160t59 220q0 182 -128.5 310.5t-310.5 128.5zM502 860q130 0 240.5 -64.5t175 -175t64.5 -240.5t-64.5 -240.5t-175 -175t-240.5 -64.5t-240.5 64.5t-175 175t-64.5 240.5t64.5 240.5t175 175t240.5 64.5z" />
    <glyph glyph-name="Japan1.7559" 
d="M398 668h245q38 0 38 -38q0 -39 -38 -39h-221q-16 0 -16 -17l-14 -135q51 32 108 32q95 0 147.5 -57.5t52.5 -138.5q0 -90 -58 -145.5t-144 -55.5q-46 0 -83.5 12t-59 29t-36 37.5t-19.5 34.5t-5 22q0 17 12.5 29t31.5 12q24 0 43 -34q33 -66 112 -66q56 0 89.5 31.5
t33.5 93.5q0 54 -34 87t-88 33q-60 0 -106 -46q-21 -20 -39 -20t-31 11.5t-10 34.5l21 239q3 54 68 54zM500 820q-182 0 -310.5 -128.5t-128.5 -310.5q0 -181 128.5 -310t310.5 -129t310.5 128.5t128.5 310.5t-128.5 310.5t-310.5 128.5zM500 861q130 0 240.5 -64.5
t175 -175t64.5 -240.5t-64.5 -240.5t-175 -175t-240.5 -64.5t-240.5 64.5t-175 175t-64.5 240.5t64.5 240.5t175 175t240.5 64.5z" />
    <glyph glyph-name="Japan1.7560" 
d="M390 323q3 -72 33 -120.5t90 -48.5q47 0 80.5 32.5t33.5 101.5q0 50 -30.5 82t-80.5 32q-73 0 -126 -79zM389 421q52 57 134 57q84 0 134.5 -53.5t50.5 -137.5q0 -96 -53.5 -152.5t-140.5 -56.5q-43 0 -77.5 14.5t-55.5 35t-36.5 51.5t-23 56t-11.5 57t-4.5 46t-0.5 31
q0 56 10.5 107.5t34 100t68.5 77.5t107 29q67 0 116.5 -34t49.5 -65q0 -16 -13 -29t-27 -13q-4 0 -7.5 0.5t-7 2t-5.5 3t-6 5t-5.5 5l-6.5 6.5l-7 7q-35 34 -80 34q-33 0 -58.5 -16t-39 -36.5t-23 -50t-12 -46t-4.5 -35.5zM500 819q-182 0 -310 -128.5t-128 -310.5
t128.5 -310.5t309.5 -128.5q119 0 220 59t160 160t59 220q0 182 -128.5 310.5t-310.5 128.5zM500 860q130 0 240.5 -64.5t175 -175t64.5 -240.5t-64.5 -240.5t-175 -175t-240.5 -64.5t-240.5 64.5t-174.5 175t-64 240.5t64 240.5t174.5 175t240.5 64.5z" />
    <glyph glyph-name="Japan1.7561" 
d="M304 528v76q0 64 64 64h276q63 0 63 -51q0 -12 -22 -70l-156 -432q-8 -23 -19 -31.5t-29 -8.5q-17 0 -30 10.5t-13 24.5t11 41l146 401q13 34 13 35q0 5 -7 5h-196q-16 0 -16 -16v-48q0 -43 -43 -43q-42 0 -42 43zM501 819q-181 0 -310 -128.5t-129 -310.5t129 -310.5
t310 -128.5q182 0 310.5 128.5t128.5 310.5t-128.5 310.5t-310.5 128.5zM501 860q130 0 240.5 -64.5t175 -175t64.5 -240.5t-64.5 -240.5t-175 -175t-240.5 -64.5t-240.5 64.5t-175 175t-64.5 240.5t64.5 240.5t175 175t240.5 64.5z" />
    <glyph glyph-name="Japan1.7562" 
d="M500 608q-52 0 -82.5 -22.5t-30.5 -61.5q0 -41 33 -65.5t80 -24.5q50 0 83 21.5t33 66.5q0 36 -29 61t-87 25zM501 360q-57 0 -95.5 -28.5t-38.5 -77.5q0 -46 38.5 -72t97.5 -26q56 0 93 28.5t37 74.5q0 45 -39 73t-93 28zM616 402q47 -17 74 -55.5t27 -87.5
q0 -80 -60.5 -130t-157.5 -50q-94 0 -154.5 49t-60.5 126q0 50 26 89t74 59q-78 37 -78 125q0 68 52.5 111.5t139.5 43.5q91 0 145 -41.5t54 -114.5q0 -41 -23.5 -76t-57.5 -48zM503 819q-182 0 -310.5 -128.5t-128.5 -309.5t129 -310t310 -129t310 129t129 310
t-128.5 309.5t-310.5 128.5zM503 860q98 0 186.5 -38t153 -102t102.5 -153t38 -186q0 -130 -64.5 -240.5t-175 -175t-240.5 -64.5t-240.5 64.5t-175 175t-64.5 240.5q0 97 38 186t102.5 153t153 102t186.5 38z" />
    <glyph glyph-name="Japan1.7563" 
d="M620 428q-1 77 -33.5 126.5t-92.5 49.5q-51 0 -84 -37.5t-33 -96.5q0 -55 30 -88t81 -33q76 0 132 79zM621 332q-56 -56 -140 -56q-82 0 -134.5 52.5t-52.5 139.5q0 91 55 152.5t146 61.5q43 0 77.5 -14t55.5 -34t36.5 -51t23 -56t11.5 -57.5t4.5 -47.5t0.5 -34
q0 -43 -4 -81t-18 -82t-37 -75t-64 -52t-95 -21q-79 0 -125 38t-46 69q0 18 13 31t30 13q20 0 37 -22q36 -52 94 -52q86 0 116 93q12 36 16 85zM503 818q-182 0 -310.5 -128.5t-128.5 -309.5q0 -182 128.5 -310.5t310.5 -128.5t310.5 128.5t128.5 310.5q0 181 -128.5 309.5
t-310.5 128.5zM503 859q130 0 240.5 -64t175 -174.5t64.5 -240.5q0 -199 -140.5 -339.5t-339.5 -140.5t-339.5 140.5t-140.5 339.5q0 130 64.5 240.5t175 174.5t240.5 64z" />
    <glyph glyph-name="Japan1.7564" 
d="M640 605q-39 0 -61.5 -59t-22.5 -168q0 -105 17.5 -165t63.5 -60q17 0 29.5 8.5t25 31t19 71t6.5 121.5q0 220 -77 220zM637 678q108 0 144 -132q18 -63 18 -155q0 -311 -157 -311q-166 0 -166 298q0 300 161 300zM502 818q-182 0 -310.5 -128.5t-128.5 -310.5
q0 -181 128.5 -310t310.5 -129t310.5 128.5t128.5 310.5t-128.5 310.5t-310.5 128.5zM502 859q131 0 241.5 -64t174.5 -174.5t64 -241.5q0 -199 -140.5 -339.5t-339.5 -140.5q-130 0 -240.5 64.5t-175 175t-64.5 240.5q0 199 140.5 339.5t339.5 140.5zM280 121v449l-39 -34
q-10 -9 -22 -9q-14 0 -25.5 12.5t-11.5 26.5q0 18 17 32l85 70q17 13 34 13q39 0 39 -47v-513q0 -38 -39 -38q-38 0 -38 38z" />
    <glyph glyph-name="Japan1.7565" 
d="M501 820q-182 0 -310.5 -128.5t-128.5 -310.5t128.5 -310.5t310.5 -128.5q181 0 309.5 128.5t128.5 310.5t-128 310.5t-310 128.5zM501 861q130 0 240.5 -64.5t174.5 -175t64 -240.5t-64 -240.5t-174.5 -175t-240.5 -64.5q-199 0 -339.5 140.5t-140.5 339.5t140.5 339.5
t339.5 140.5zM301 126v445l-36 -32q-13 -11 -24 -11q-14 0 -26.5 11.5t-12.5 25.5q0 17 22 35q64 55 81.5 67t34.5 12q38 0 38 -47v-506q0 -39 -39 -39q-38 0 -38 39zM631 125v444l-37 -32q-11 -11 -25 -11t-25.5 12t-11.5 28t18 30q62 52 83 68q19 13 36 13q39 0 39 -45
v-507q0 -38 -39 -38q-38 0 -38 38z" />
    <glyph glyph-name="Japan1.7566" 
d="M500 819q-182 0 -310.5 -128.5t-128.5 -310.5q0 -181 129 -309.5t310 -128.5t310 128.5t129 309.5q0 182 -128.5 310.5t-310.5 128.5zM500 860q199 0 339.5 -140.5t140.5 -339.5q0 -97 -38 -186t-102.5 -153t-153 -102t-186.5 -38t-186.5 38t-153 102t-102.5 153t-38 186
q0 199 140.5 339.5t339.5 140.5zM570 165h179q37 0 37 -37q0 -38 -37 -38h-218q-56 0 -56 48q0 32 28.5 81.5t56 83.5l75.5 89q73 82 73 142q0 30 -18.5 51.5t-54.5 21.5q-22 0 -37.5 -7.5t-24 -22.5t-11.5 -25t-7 -28q-6 -28 -35 -28q-38 0 -38 39q0 53 40.5 99t116.5 46
q60 0 103.5 -39.5t43.5 -107.5q0 -85 -95 -187q-83 -91 -116 -151q-12 -23 -12 -26q0 -4 7 -4zM277 125v442l-37 -34q-13 -10 -25 -10q-14 0 -25.5 12t-11.5 27q0 17 21 34l77 63q20 16 39 16q39 0 39 -46v-504q0 -38 -39 -38q-38 0 -38 38z" />
    <glyph glyph-name="Japan1.7567" 
d="M501 818q-182 0 -310.5 -128.5t-128.5 -310.5q0 -181 128.5 -309.5t310.5 -128.5q181 0 309.5 128.5t128.5 309.5q0 182 -128 310.5t-310 128.5zM501 859q130 0 240.5 -64.5t174.5 -175t64 -240.5t-64 -240.5t-174.5 -174.5t-240.5 -64q-98 0 -186.5 38t-153 102
t-102.5 153t-38 186q0 130 64.5 240.5t175 175t240.5 64.5zM692 401q44 -13 70 -52.5t26 -97.5q0 -74 -47.5 -123t-118.5 -49q-44 0 -78.5 16t-51.5 39.5t-25 43t-8 32.5q0 17 12.5 28t28.5 11q31 0 39 -33q15 -63 83 -63q40 0 65.5 28t25.5 72q0 29 -9.5 49.5t-22 30.5
t-32.5 15.5t-31.5 6.5t-28.5 1q-39 0 -39 35q0 34 38 36q30 1 46 6t33 22q27 28 27 73q0 34 -19.5 56.5t-54.5 22.5q-33 0 -49.5 -15.5t-27.5 -43.5q-9 -26 -40 -26q-16 0 -25.5 9t-9.5 23q0 15 8.5 34t24.5 40t47.5 35.5t70.5 14.5q67 0 107.5 -40t40.5 -108
q0 -49 -20.5 -82.5t-54.5 -46.5zM283 125v442l-34 -30q-16 -13 -27 -13q-14 0 -25.5 11.5t-11.5 26.5q0 18 19 34q44 38 80 65q17 14 37 14q18 0 28.5 -11.5t10.5 -31.5v-507q0 -38 -39 -38q-38 0 -38 38z" />
    <glyph glyph-name="Japan1.7568" 
d="M509 265h139v251zM723 631v-366q21 0 30 -1t17 -9t8 -25q0 -23 -12.5 -28.5t-42.5 -5.5v-70q0 -39 -40 -39q-35 0 -35 37v72h-185q-42 0 -42 36q0 17 14 42l205 375q16 27 42 27q41 0 41 -45zM500 820q-182 0 -310.5 -128.5t-128.5 -310.5q0 -181 128.5 -310t310.5 -129
t310.5 128.5t128.5 310.5t-128.5 310.5t-310.5 128.5zM500 861q199 0 339.5 -140.5t140.5 -339.5t-140.5 -339.5t-339.5 -140.5q-130 0 -240.5 64.5t-175 175t-64.5 240.5t64.5 240.5t175 175t240.5 64.5zM280 127v445l-37 -32q-10 -10 -24 -10t-25.5 12.5t-11.5 26.5
t14.5 28t85.5 70q15 14 36 14q18 0 28.5 -12t10.5 -33v-509q0 -39 -39 -39q-38 0 -38 39z" />
    <glyph glyph-name="Japan1.7569" 
d="M500 819q-181 0 -309.5 -128.5t-128.5 -310.5t128.5 -310.5t309.5 -128.5q182 0 311 128.5t129 310.5t-129 310.5t-311 128.5zM500 860q199 0 340 -140.5t141 -339.5t-141 -339.5t-340 -140.5q-130 0 -240.5 64.5t-174.5 175t-64 240.5t64 240.5t174.5 175t240.5 64.5z
M568 566l-15 -118q40 25 89 25q66 0 105 -49t39 -138q0 -95 -46 -151t-124 -56q-41 0 -73.5 17t-49 41t-24.5 44t-8 32q0 17 12 27.5t29 10.5q24 0 34 -30q23 -68 80 -68q29 0 48.5 13t28.5 35t12.5 41t3.5 40q0 118 -82 118q-45 0 -74 -39q-16 -20 -38 -20q-18 0 -29 11.5
t-11 29.5q0 8 6 62l18 168q3 31 19 43t51 12h170q37 0 37 -37t-37 -37h-149q-11 0 -16 -5.5t-6 -21.5zM272 125v441l-34 -29q-13 -11 -25 -11q-15 0 -26 11t-11 26q0 20 19 36l71 56q24 20 44 20q39 0 39 -43v-507q0 -39 -39 -39q-38 0 -38 39z" />
    <glyph glyph-name="Japan1.7570" 
d="M631 409q-21 0 -45 -14t-41 -40q-1 -7 -1 -23q0 -26 5 -61q15 -121 84 -121q40 0 60 37t20 99q0 123 -82 123zM549 444q40 39 95 39q66 0 104.5 -54.5t38.5 -142.5q0 -96 -42.5 -152t-111.5 -56q-164 0 -164 284q0 317 175 317q56 0 92 -35t36 -64q0 -17 -11.5 -28
t-26.5 -11q-26 0 -38 24q-20 41 -55 41t-61 -43.5t-31 -118.5zM499 819q-182 0 -310.5 -128.5t-128.5 -310.5t128.5 -310.5t310.5 -128.5t310.5 128.5t128.5 310.5t-128.5 310.5t-310.5 128.5zM499 860q130 0 240.5 -64.5t175 -175t64.5 -240.5t-64.5 -240.5t-175 -175
t-240.5 -64.5q-199 0 -339.5 140.5t-140.5 339.5t140.5 339.5t339.5 140.5zM270 124v442l-37 -33q-13 -11 -25 -11q-14 0 -25.5 12t-11.5 26q0 19 17 33q55 49 85 69q18 12 35 12q39 0 39 -40v-510q0 -38 -39 -38q-38 0 -38 38z" />
    <glyph glyph-name="Japan1.7571" 
d="M500 820q-182 0 -310.5 -128.5t-128.5 -310.5q0 -181 128.5 -310t310.5 -129t310.5 129t128.5 310q0 182 -128.5 310.5t-310.5 128.5zM500 861q130 0 240.5 -64.5t175 -175t64.5 -240.5t-64.5 -240.5t-175 -175t-240.5 -64.5t-240.5 64.5t-175 175t-64.5 240.5
t64.5 240.5t175 175t240.5 64.5zM463 532v78q0 60 60 60h212q27 0 38.5 -10.5t11.5 -32.5q0 -7 -16 -69l-125 -441q-11 -36 -42 -36q-17 0 -27.5 9.5t-10.5 22.5q0 10 8 38l120 412q8 22 8 30q0 6 -8 6h-133q-13 0 -18 -4.5t-5 -18.5v-44q0 -37 -37 -37q-36 0 -36 37z
M274 118v451l-37 -33q-10 -10 -22 -10q-17 0 -28 11.5t-11 27.5q0 18 17 31l85 70q17 13 34 13q39 0 39 -41v-520q0 -38 -39 -38q-38 0 -38 38z" />
    <glyph glyph-name="Japan1.7572" 
d="M633 607q-76 0 -76 -92q0 -43 21 -63.5t51 -20.5q15 0 30 5.5t30 27t15 56.5q0 40 -19.5 63.5t-51.5 23.5zM631 362q-41 0 -64 -27.5t-23 -77.5q0 -43 20 -74.5t62 -31.5q84 0 84 106q0 54 -23 79.5t-56 25.5zM707 401q38 -16 58 -53q21 -39 21 -96q0 -83 -46.5 -128
t-106.5 -45q-74 0 -120 46t-46 126q0 108 82 148q-28 8 -47 40.5t-19 83.5q0 62 38.5 108t110.5 46q68 0 106.5 -42.5t38.5 -114.5q0 -44 -21 -78t-49 -41zM499 819q-181 0 -309.5 -128.5t-128.5 -310.5q0 -181 128.5 -309.5t309.5 -128.5q182 0 310.5 128t128.5 310
t-128.5 310.5t-310.5 128.5zM499 860q199 0 339.5 -140.5t140.5 -339.5q0 -130 -64.5 -240.5t-175 -174.5t-240.5 -64t-240.5 64t-174.5 174.5t-64 240.5q0 199 140.5 339.5t338.5 140.5zM271 125v443l-37 -32q-13 -11 -24 -11q-16 0 -27 11t-11 26q0 18 20 35l73 61
q24 18 43 18t29.5 -12t10.5 -33v-506q0 -39 -39 -39q-38 0 -38 39z" />
    <glyph glyph-name="Japan1.7573" 
d="M711 400q0 208 -88 208q-38 0 -58 -35.5t-20 -99.5q0 -124 74 -124q50 0 92 51zM709 317q-41 -41 -102 -41q-32 0 -57 11t-39 31t-23 39t-12 44t-4 37t-1 26q0 32 4.5 62t19 68.5t48.5 62t85 23.5q50 0 92.5 -39t56.5 -126q10 -54 10 -126q0 -310 -171 -310
q-34 0 -61.5 13.5t-41 32t-20.5 33.5t-7 24q0 16 12.5 27.5t28.5 11.5q27 0 35 -25q17 -45 55 -45q41 0 63.5 40t28.5 126zM500 819q-119 0 -220 -59t-160 -160t-59 -220t59 -220t160 -160t220 -59q182 0 310.5 128.5t128.5 310.5t-128.5 310.5t-310.5 128.5zM500 860
q130 0 240.5 -64.5t175 -175t64.5 -240.5t-64.5 -240.5t-175 -175t-240.5 -64.5t-240.5 64.5t-175 175t-64.5 240.5t64.5 240.5t175 175t240.5 64.5zM271 124v446l-37 -33q-11 -11 -26 -11q-14 0 -25 11t-11 27q0 17 19 34l24 20l31 25.5l23 18.5q20 15 37 15q42 0 42 -45
v-508q0 -39 -39 -39q-38 0 -38 39z" />
    <glyph glyph-name="Japan1.7574" 
d="M692 606q-20 0 -36 -14t-24.5 -39.5t-14.5 -49.5t-8 -54t-2.5 -42.5t-0.5 -26.5q0 -227 84 -227q77 0 77 228q0 225 -75 225zM686 678q162 0 162 -297q0 -301 -155 -301q-166 0 -166 301q0 297 159 297zM502 819q-119 0 -220 -59t-160 -160t-59 -220q0 -182 128.5 -310.5
t310.5 -128.5t310.5 128.5t128.5 310.5q0 119 -59 220t-160 160t-220 59zM502 860q130 0 240.5 -64.5t175 -175t64.5 -240.5t-64.5 -240.5t-175 -175t-240.5 -64.5t-240.5 64.5t-175 175t-64.5 240.5t64.5 240.5t175 175t240.5 64.5zM271 166h179q38 0 38 -38q0 -37 -38 -37
h-219q-55 0 -55 45q0 62 93 179q13 16 37.5 43.5t34.5 40.5q38 46 53 75t15 57q0 34 -18 55.5t-51 21.5q-31 0 -51 -16.5t-24.5 -29.5t-5.5 -24q-6 -42 -37 -42q-17 0 -28.5 11t-11.5 28q0 49 39.5 97t114.5 48q70 0 110.5 -40t40.5 -104q0 -80 -75 -167
q-70 -80 -87.5 -101.5t-34.5 -49.5q-26 -44 -26 -48t7 -4z" />
    <glyph glyph-name="Japan1.7575" 
d="M448 8v745q0 51 52 51t52 -51v-745q0 -52 -52 -52t-52 52z" />
    <glyph glyph-name="Japan1.7576" 
d="M638 9v745q0 52 51 52q52 0 52 -52v-745q0 -51 -52 -51q-51 0 -51 51zM264 9v745q0 52 51 52q52 0 52 -52v-745q0 -51 -52 -51q-51 0 -51 51z" />
    <glyph glyph-name="Japan1.7577" 
d="M733 6v746q0 51 51 51t51 -51v-746q0 -51 -51 -51t-51 51zM451 6v746q0 51 51 51q52 0 52 -51v-746q0 -51 -52 -51q-51 0 -51 51zM169 6v746q0 51 51 51q52 0 52 -51v-746q0 -51 -52 -51q-51 0 -51 51z" />
    <glyph glyph-name="Japan1.7578" 
d="M367 766l244 -694l243 695q15 42 49 42q22 0 38.5 -14t16.5 -34q0 -13 -9 -38l-257 -696q-26 -69 -83 -69q-55 0 -82 74l-256 692q-8 24 -8 35q0 20 16.5 34t39.5 14q19 0 29.5 -9.5t18.5 -31.5zM95 9v744q0 52 52 52t52 -52v-744q0 -51 -52 -51t-52 51z" />
    <glyph glyph-name="Japan1.7579" 
d="M218 768l284 -695l280 691q16 41 48 41q24 0 40.5 -14.5t16.5 -33.5q0 -13 -12 -43l-287 -678q-11 -25 -19.5 -39.5t-26 -28t-40.5 -13.5q-31 0 -49.5 16.5t-33.5 52.5l-296 696q-11 22 -11 34q0 22 17 36t40 14q33 0 49 -36z" />
    <glyph glyph-name="Japan1.7580" 
d="M145 768l246 -693l242 688q15 42 51 42q23 0 39.5 -14t16.5 -35q0 -11 -11 -40l-248 -669q-7 -20 -13 -32t-17 -28t-26.5 -24t-35.5 -8q-58 0 -83 75l-259 696q-7 18 -7 32q0 21 16.5 34.5t39.5 13.5q35 0 49 -38zM800 8v745q0 52 52 52t52 -52v-745q0 -52 -52 -52
t-52 52z" />
    <glyph glyph-name="Japan1.7581" 
d="M147 767l145 -682l153 679q10 42 48 42q20 0 35 -13t15 -35q0 -4 -1 -9.5t-3 -13.5t-3 -14l-169 -694q-20 -74 -77 -74q-19 0 -33.5 8.5t-22.5 24.5t-11.5 26t-7.5 27l-160 690q-4 16 -4 29q0 19 15 32.5t37 13.5q37 0 44 -37zM594 4v751q0 48 49 48t49 -48v-751
q0 -48 -49 -48t-49 48zM811 5v752q0 48 48 48q49 0 49 -48v-752q0 -49 -49 -49q-48 0 -48 49z" />
    <glyph glyph-name="Japan1.7582" 
d="M463 716l-139 -669q-4 -21 -8 -33.5t-12 -29t-22.5 -25t-34.5 -8.5t-34.5 8.5t-22.5 25t-11.5 30t-7.5 35.5l-129 667q-6 24 -6 42q0 20 14 32t35 12q40 0 48 -46l115 -636l126 643q8 39 46 39q22 0 35.5 -12t13.5 -34q0 -14 -6 -41zM508 -2v760q0 43 43 43q44 0 44 -43
v-760q0 -44 -44 -44q-43 0 -43 44zM665 -3v761q0 44 44 44t44 -44v-761q0 -44 -44 -44t-44 44zM826 -1v759q0 44 44 44q45 0 45 -44v-759q0 -44 -45 -44q-44 0 -44 44z" />
    <glyph glyph-name="Japan1.7583" 
d="M108 7v746q0 51 51 51q52 0 52 -51v-746q0 -51 -52 -51q-51 0 -51 51zM408 780l198 -305l200 301q17 26 43 26q22 0 37.5 -14t15.5 -34q0 -17 -23 -49l-215 -308l254 -355q12 -17 12 -36q0 -20 -15.5 -35t-37.5 -15q-17 0 -28 10.5t-33 43.5l-212 314l-216 -326
q-16 -23 -27.5 -33t-28.5 -10q-19 0 -35.5 14.5t-16.5 36.5q0 18 19 43l249 352l-200 288q-24 33 -29.5 44.5t-5.5 23.5q0 20 14.5 34.5t37.5 14.5q26 0 43 -26z" />
    <glyph glyph-name="Japan1.7584" 
d="M253 782l251 -313l238 302q14 18 24 24.5t26 6.5q24 0 39 -16t15 -35q0 -12 -6.5 -22.5t-31.5 -41.5l-243 -289l300 -352q18 -21 18 -39q0 -21 -16.5 -36.5t-38.5 -15.5q-16 0 -27.5 9.5t-32.5 35.5l-267 325l-269 -324q-21 -26 -33.5 -35.5t-30.5 -9.5q-21 0 -37 14
t-16 33t20 42l304 353l-243 292q-24 28 -31 39.5t-7 26.5q0 17 15 32t38 15q25 0 42 -21z" />
    <glyph glyph-name="Japan1.8061" 
d="M220 669q-59 0 -85 -68t-26 -225q0 -147 24.5 -216t81.5 -69q59 0 85 67t26 219q0 159 -24 225.5t-82 66.5zM221 753q41 0 73 -14t52.5 -42t33.5 -60t19.5 -77.5t9 -85t2.5 -90.5q0 -197 -46.5 -287.5t-152.5 -90.5q-54 0 -97 34.5t-63 95.5q-27 81 -27 233
q0 151 25.5 243t100.5 126q33 15 70 15zM497 128q25 0 43 -17.5t18 -42.5q0 -26 -18 -43.5t-43 -17.5t-42.5 18t-17.5 43t17.5 42.5t42.5 17.5z" />
    <glyph glyph-name="Japan1.8062" 
d="M272 698v-641q0 -44 -44 -44q-43 0 -43 44v552q0 4 -2 4l-7 -7l-16.5 -17t-11.5 -11q-19 -15 -33 -15q-17 0 -30.5 13.5t-13.5 30.5q0 19 24 41q15 15 39.5 37t32.5 30q34 33 58 33q22 0 34.5 -13.5t12.5 -36.5zM499 128q25 0 43 -17.5t18 -42.5q0 -26 -18 -43.5
t-43 -17.5t-42.5 18t-17.5 43t17.5 42.5t42.5 17.5z" />
    <glyph glyph-name="Japan1.8063" 
d="M143 105h218q43 0 43 -43q0 -44 -43 -44h-256q-69 0 -69 58q0 72 133 241l34 40.5l39.5 48t31.5 40.5q45 60 45 124q0 47 -23.5 75t-64.5 28q-26 0 -43.5 -9t-27.5 -27.5t-14 -32.5t-9 -39q-9 -35 -42 -35q-42 0 -42 45q0 24 8.5 52t27.5 58.5t56 50.5t87 20
q80 0 127 -51.5t47 -133.5q0 -83 -70 -178q-15 -20 -50 -62l-49 -60q-33 -40 -68 -94.5t-35 -65.5q0 -6 9 -6zM499 131q25 0 42.5 -17.5t17.5 -42.5t-17.5 -43t-42.5 -18t-43 18t-18 43t18 42.5t43 17.5z" />
    <glyph glyph-name="Japan1.8064" 
d="M305 407q40 -12 72.5 -57.5t32.5 -123.5q0 -103 -52 -161.5t-140 -58.5q-53 0 -93.5 21.5t-60.5 52.5t-29.5 58t-9.5 46q0 20 12.5 31.5t32.5 11.5q15 0 24 -7.5t13 -18t9 -32.5q10 -38 37 -60t66 -22q50 0 78 36.5t28 99.5q0 76 -33.5 105t-78.5 29q-29 0 -42 1.5
t-24 11.5t-11 31t10 31t23 11.5t45 1.5q40 0 64 34.5t24 82.5q0 52 -23 80t-66 28q-21 0 -37 -8t-25 -17t-15.5 -26.5t-8.5 -26t-5 -26.5q-8 -30 -39 -30q-20 0 -31 12t-11 31q0 65 46 118.5t128 53.5q76 0 122 -49.5t46 -130.5q0 -122 -78 -164zM498 126q25 0 43 -17.5
t18 -42.5q0 -26 -17.5 -43.5t-43.5 -17.5q-25 0 -42.5 18t-17.5 43t17.5 42.5t42.5 17.5z" />
    <glyph glyph-name="Japan1.8065" 
d="M103 224h170v362zM351 700v-476h36q37 0 37 -37t-37 -37h-36v-96q0 -39 -39 -39t-39 39v96h-218q-48 0 -48 40q0 14 12 39l240 488q15 30 46 30q20 0 33 -12.5t13 -34.5zM497 129q25 0 42.5 -18t17.5 -43t-17.5 -42.5t-42.5 -17.5t-43 17.5t-18 42.5q0 26 18 43.5
t43 17.5z" />
    <glyph glyph-name="Japan1.8066" 
d="M148 640l-14 -178q38 34 99 34q78 0 126 -61t48 -167q0 -109 -46.5 -184.5t-140.5 -75.5q-52 0 -90.5 20.5t-57 50.5t-27 54.5t-8.5 40.5q0 18 12.5 30t30.5 12q28 0 38 -27q17 -51 18 -53q28 -50 79 -50q52 0 80.5 45t28.5 129q0 77 -24.5 117.5t-71.5 40.5
q-54 0 -89 -47q-22 -30 -29 -36.5t-21 -6.5q-16 0 -28.5 13t-11.5 33l20 303q5 67 75 67h204q41 0 41 -41t-41 -41h-177q-22 0 -23 -22zM500 128q25 0 43 -17.5t18 -42.5q0 -26 -17.5 -43.5t-43.5 -17.5q-25 0 -42.5 18t-17.5 43t17.5 42.5t42.5 17.5z" />
    <glyph glyph-name="Japan1.8067" 
d="M116 317q0 -230 112 -230q46 0 72 45t26 127q0 79 -24.5 120.5t-70.5 41.5q-41 0 -78 -36t-37 -68zM118 438q45 61 124 61q25 0 50 -9.5t53 -33.5t45 -74.5t17 -121.5q0 -116 -47 -184.5t-133 -68.5q-194 0 -194 343q0 406 202 406q67 0 112.5 -43t45.5 -78
q0 -18 -12 -30t-30 -12q-15 0 -23.5 9t-23.5 34q-23 40 -70 40q-104 0 -116 -238zM500 127q26 0 43.5 -17.5t17.5 -43.5q0 -25 -18 -42.5t-43 -17.5t-42.5 17.5t-17.5 42.5t17.5 43t42.5 18z" />
    <glyph glyph-name="Japan1.8068" 
d="M35 565v104q0 73 73 73h244q66 0 66 -56q0 -15 -5 -31l-163 -606q-9 -36 -41 -36q-19 0 -32.5 11t-13.5 27q0 7 3 18l154 567q2 10 2 13q0 14 -20 14h-157q-15 0 -20.5 -5.5t-5.5 -20.5v-72q0 -42 -42 -42t-42 42zM497 128q25 0 43 -17.5t18 -42.5q0 -26 -18 -43.5
t-43 -17.5t-42.5 18t-17.5 43t17.5 42.5t42.5 17.5z" />
    <glyph glyph-name="Japan1.8069" 
d="M224 677q-46 0 -72.5 -31.5t-26.5 -84.5q0 -55 26.5 -87t71.5 -32t71.5 30t26.5 91q0 53 -26.5 83.5t-70.5 30.5zM224 363q-55 0 -86 -37t-31 -107q0 -62 31 -98t86 -36q53 0 84 38t31 103q0 64 -29.5 100.5t-85.5 36.5zM325 409q98 -51 98 -183q0 -107 -58 -163.5
t-145 -56.5q-82 0 -139 53.5t-57 159.5q0 140 96 189q-75 45 -75 153q0 88 48.5 139.5t130.5 51.5q78 0 127.5 -50t49.5 -142q0 -110 -76 -151zM501 128q25 0 43 -17.5t18 -42.5q0 -26 -18 -43.5t-43 -17.5t-42.5 18t-17.5 43t17.5 42.5t42.5 17.5z" />
    <glyph glyph-name="Japan1.8070" 
d="M331 435q0 240 -110 240q-46 0 -78 -47t-32 -140q0 -43 9.5 -74.5t21.5 -46t28.5 -23.5t24.5 -10t16 -1q49 0 84.5 36.5t35.5 65.5zM328 310q-49 -55 -120 -55q-30 0 -57.5 10.5t-55.5 34.5t-45 73t-17 117q0 117 50.5 192.5t139.5 75.5q39 0 70 -14.5t50.5 -36.5
t33.5 -56t21 -63t11 -69t4.5 -62.5t0.5 -54.5q0 -213 -60 -314q-50 -83 -143 -83q-50 0 -90 27.5t-57 58t-17 51.5t13.5 31.5t30.5 10.5q18 0 26.5 -9.5t27.5 -48.5q26 -42 68 -42q31 0 53.5 21t34.5 59.5t17.5 70t9.5 75.5zM502 129q25 0 43 -17.5t18 -42.5t-17.5 -43
t-43.5 -18q-25 0 -42.5 18t-17.5 43t17.5 42.5t42.5 17.5z" />
    <glyph glyph-name="Japan1.8071" 
d="M577 689v-630q0 -46 -47 -46t-47 46v564q0 5 -3 5l-4 -2l-73 -51q-20 -14 -37 -14t-30 14t-13 33q0 25 29 44q101 67 126.5 81t44.5 14q54 0 54 -58zM206 830q0 -8 -8 -20q-62 -94 -95 -212q-31 -114 -31 -221q0 -241 124 -426q8 -12 8 -20t-6 -14t-16 -6q-14 0 -25 19
q-127 198 -127 447q0 118 32 233q35 128 102 224q9 14 21 14q8 0 14.5 -5.5t6.5 -12.5zM796 828q0 8 6.5 13.5t16.5 5.5q12 0 23 -18q128 -205 128 -451t-132 -452q-10 -16 -21 -16q-9 0 -15.5 6t-6.5 15q0 7 9 20q63 95 96 219q28 100 28 208q0 123 -33 234q-28 96 -84 186
q-15 25 -15 30z" />
    <glyph glyph-name="Japan1.8072" 
d="M390 105h314q44 0 44 -44t-44 -44h-373q-75 0 -75 58q0 19 8.5 35.5t30.5 47.5q72 101 220 227q78 67 104 103.5t26 76.5q0 48 -34 77t-95 29q-107 0 -148 -109q-12 -33 -43 -33q-20 0 -35 12.5t-15 31.5q0 16 12.5 43t38 59.5t76 56t113.5 23.5q112 0 168.5 -55.5
t56.5 -131.5q0 -46 -20.5 -88t-42 -65.5t-55.5 -51.5l-101 -85q-47 -41 -97.5 -98t-50.5 -68q0 -7 17 -7zM205 831q0 -7 -8 -19q-63 -98 -95 -213q-31 -112 -31 -221q0 -241 124 -426q7 -11 7 -20q0 -8 -6 -14t-15 -6q-14 0 -25 20q-69 105 -103 244q-24 98 -24 202
q0 119 32 234q35 125 102 224q9 13 21 13q8 0 14.5 -5.5t6.5 -12.5zM795 829q0 8 6 13.5t16 5.5q12 0 24 -18q128 -205 128 -451q0 -247 -133 -452q-10 -16 -21 -16q-9 0 -15.5 6t-6.5 15q0 6 9 20q63 92 97 218q28 101 28 209q0 121 -28.5 220t-88.5 200q-15 23 -15 30z
" />
    <glyph glyph-name="Japan1.8073" 
d="M619 402q65 -21 101 -69t36 -113q0 -98 -67.5 -157.5t-185.5 -59.5q-58 0 -105.5 15.5t-75.5 37.5t-47.5 47.5t-26.5 44.5t-7 31q0 21 15.5 33.5t35.5 12.5q26 0 41 -31q27 -54 66 -79.5t107 -25.5q78 0 118.5 38t40.5 94q0 77 -71 112q-28 14 -58 18t-101 4
q-43 0 -43 43q0 42 43 42q96 0 131 15q68 31 68 105q0 9 -1.5 18.5t-9 27t-20.5 30.5t-40 23t-63 10q-37 0 -65 -10.5t-44.5 -30t-23 -30.5t-14.5 -29q-14 -34 -44 -34q-21 0 -34 12t-13 31q0 18 12.5 44t37.5 55.5t74.5 50t113.5 20.5q58 0 102.5 -16.5t70 -43.5t38 -57.5
t12.5 -62.5q0 -67 -31.5 -108.5t-72.5 -57.5zM207 829q0 -3 -8 -19q-63 -94 -96 -213q-31 -114 -31 -221q0 -241 124 -426q8 -11 8 -20q0 -8 -6 -14t-16 -6q-14 0 -25 20q-69 105 -103 244q-24 97 -24 202q0 120 32 233q34 126 102 225q9 14 21 14q9 0 15.5 -5.5t6.5 -13.5z
M796 829q0 8 6.5 13.5t16.5 5.5q12 0 23 -19q128 -203 128 -450q0 -246 -132 -453q-11 -15 -21 -15q-9 0 -15.5 6t-6.5 14q0 7 9 21q62 92 96 218q28 100 28 209q0 123 -33 234q-28 96 -84 186q-15 25 -15 30z" />
    <glyph glyph-name="Japan1.8074" 
d="M577 230v373l-257 -373h257zM664 679v-449h59q42 0 42 -42q0 -41 -42 -41h-59v-87q0 -48 -45 -48q-20 0 -31 11.5t-11 30.5v93h-305q-62 0 -62 49q0 24 24 58l322 458q24 34 55 34q53 0 53 -67zM206 831q0 -7 -8 -19q-63 -98 -95 -213q-31 -112 -31 -221q0 -136 38 -245
t86 -180q8 -12 8 -20t-6.5 -14t-15.5 -6q-14 0 -25 19q-69 105 -103 245q-24 97 -24 201q0 119 32 234q35 125 102 224q9 14 21 14q8 0 14.5 -6t6.5 -13zM796 830q0 8 6.5 13.5t16.5 5.5q12 0 23 -18q128 -205 128 -451t-132 -452q-10 -16 -21 -16q-9 0 -15.5 6t-6.5 14
q0 9 9 21q63 95 96 218q28 100 28 209q0 119 -28.5 218.5t-88.5 201.5q-15 25 -15 30z" />
    <glyph glyph-name="Japan1.8075" 
d="M383 740h297q42 0 42 -42t-42 -42h-270q-20 0 -26 -6.5t-8 -28.5l-17 -175q66 45 147 45q108 0 175 -66.5t67 -174.5q0 -105 -68.5 -175t-180.5 -70q-67 0 -118.5 21t-77 50.5t-37.5 53.5t-12 39q0 18 14 30.5t33 12.5q29 0 43 -31q47 -94 154 -94q67 0 113 41.5
t46 120.5q0 74 -44.5 117t-115.5 43q-75 0 -142 -64q-19 -18 -41 -18q-21 0 -33 11.5t-12 32.5q0 7 1.5 24t1.5 23l21 246q2 27 10.5 43.5t23.5 23t26 8t30 1.5zM205 829q0 -6 -9 -20q-63 -99 -95 -212q-31 -112 -31 -221q0 -136 37.5 -245t86.5 -180q8 -12 8 -20t-6 -14
t-16 -6q-14 0 -25 19q-69 105 -103 244q-24 97 -24 202q0 119 32 234q35 126 102 223q9 14 21 14q8 0 15 -5.5t7 -12.5zM795 826q0 8 6 14t16 6q11 0 24 -19q128 -205 128 -450q0 -247 -133 -452q-10 -16 -21 -16q-9 0 -15.5 6t-6.5 15q0 6 9 20q63 92 97 218q28 102 28 209
q0 226 -117 419q-15 23 -15 30z" />
    <glyph glyph-name="Japan1.8076" 
d="M352 302q0 -90 43 -152.5t119 -62.5q63 0 106 45t43 128q0 65 -40 109t-107 44q-31 0 -59.5 -11t-47 -26.5t-32 -32.5t-19.5 -28t-6 -13zM351 416q61 78 177 78q102 0 163 -67t61 -165q0 -113 -62.5 -185t-177.5 -72q-123 0 -188.5 92t-65.5 260q0 189 74.5 291.5
t197.5 102.5q87 0 145.5 -42.5t58.5 -78.5q0 -16 -13 -29.5t-30 -13.5t-35 18q-30 30 -57 45.5t-68 15.5q-156 0 -180 -250zM204 830q0 -7 -8 -19q-63 -98 -95 -213q-31 -114 -31 -221q0 -240 124 -425q8 -12 8 -20t-6.5 -14t-15.5 -6q-14 0 -25 19q-69 107 -103 245
q-24 98 -24 201q0 120 32 233q34 126 102 225q9 14 21 14q8 0 14.5 -6t6.5 -13zM795 828q0 8 6.5 13.5t16.5 5.5q11 0 23 -18q128 -205 128 -450q0 -247 -133 -453q-11 -15 -21 -15q-8 0 -15 6t-7 14q0 7 9 21q16 24 31.5 53.5t39.5 86t39 132t15 155.5q0 221 -117 419
q-15 22 -15 30z" />
    <glyph glyph-name="Japan1.8077" 
d="M261 567v93q0 40 18.5 59t59.5 19h344q69 0 69 -53q0 -19 -17 -66l-206 -577q-14 -35 -45 -35q-21 0 -35 12t-14 30q0 8 9 33l197 543q1 3 2.5 8.5t2.5 9.5t1 6q0 7 -11 7h-257q-16 0 -21 -5t-5 -21v-63q0 -46 -46 -46t-46 46zM207 830q0 -3 -8 -19q-63 -95 -96 -212
q-31 -114 -31 -221q0 -241 124 -426q8 -12 8 -20t-6 -14t-16 -6q-14 0 -25 19q-127 198 -127 447q0 120 32 233q35 125 102 224q9 14 21 14q9 0 15.5 -5.5t6.5 -13.5zM796 828q0 8 6.5 14t16.5 6q11 0 23 -19q128 -205 128 -450q0 -246 -132 -453q-11 -15 -21 -15
q-9 0 -15.5 6t-6.5 14q0 7 9 21q62 92 96 218q28 100 28 209q0 233 -117 419q-15 25 -15 30z" />
    <glyph glyph-name="Japan1.8078" 
d="M500 670q-71 0 -110.5 -30.5t-39.5 -79.5q0 -36 17 -61.5t43.5 -37t48.5 -16t41 -4.5q66 0 108.5 29.5t42.5 86.5q0 13 -5 28.5t-19 36.5t-47 34.5t-80 13.5zM500 359q-78 0 -126.5 -39.5t-48.5 -100.5t51 -95.5t125 -34.5q70 0 120.5 36.5t50.5 96.5q0 65 -51.5 101
t-120.5 36zM632 404q65 -24 99 -73t34 -106q0 -97 -73.5 -158t-190.5 -61q-130 0 -198.5 64t-68.5 150q0 59 33 110.5t97 74.5q-21 9 -41 24t-41 51t-21 82q0 77 61 133t174 56q56 0 99.5 -12.5t70 -31.5t43.5 -45t23.5 -50.5t6.5 -49.5q0 -48 -27 -91t-80 -67zM206 830
q0 -7 -8 -19q-63 -95 -96 -212q-31 -114 -31 -221q0 -241 124 -426q8 -11 8 -20q0 -8 -6 -14t-16 -6q-14 0 -25 20q-69 105 -103 244q-24 98 -24 202q0 118 32 233q35 125 102 224q9 14 22 14q8 0 14.5 -5.5t6.5 -13.5zM796 829q0 8 6 13.5t16 5.5q12 0 24 -18
q128 -205 128 -450q0 -248 -133 -453q-9 -15 -21 -15q-9 0 -15.5 5.5t-6.5 14.5q0 7 9 21q62 90 97 218q28 100 28 209q0 228 -118 419q-14 23 -14 30z" />
    <glyph glyph-name="Japan1.8079" 
d="M654 457q0 19 -3.5 42.5t-15 54t-28.5 55t-48.5 41.5t-71.5 17q-64 0 -107.5 -48.5t-43.5 -128.5q0 -10 1 -21.5t9 -38t22 -46t45 -35.5t73 -16q62 0 115 45.5t53 78.5zM656 331q-72 -77 -181 -77q-102 0 -166 66t-64 163q0 68 22 121.5t58.5 84.5t79 47t87.5 16
q53 0 97.5 -19t81 -59.5t57 -112.5t20.5 -170q0 -193 -68.5 -289.5t-197.5 -96.5q-97 0 -153.5 45.5t-56.5 84.5q0 19 14 32t32 13q21 0 38 -22q17 -21 28.5 -32t39 -24t61.5 -13q80 0 123 62t48 180zM206 830q0 -7 -8 -19q-63 -95 -96 -212q-31 -114 -31 -222
q0 -136 37.5 -244.5t86.5 -179.5q8 -12 8 -20t-6 -14t-16 -6q-14 0 -25 19q-69 105 -103 244q-24 98 -24 201q0 119 32 234q34 124 102 224q9 14 21 14q9 0 15.5 -5.5t6.5 -13.5zM796 828q0 8 6 14t16 6q11 0 23 -19q128 -205 128 -451q0 -245 -132 -451q-9 -15 -21 -15
q-9 0 -15.5 5.5t-6.5 14.5q0 7 9 21q62 92 96 217q28 100 28 208q0 122 -33 235q-29 98 -84 185q-14 23 -14 30z" />
    <glyph glyph-name="Japan1.8080" 
d="M633 674q-23 0 -38.5 -11.5t-24 -34.5t-11.5 -39t-6 -43q-7 -76 -7 -168q0 -158 15.5 -226.5t68.5 -68.5q25 0 42 15.5t25.5 44.5t11.5 47.5t5 45.5q6 69 6 142q0 207 -30 260q-20 36 -57 36zM636 755q43 0 74 -19.5t48.5 -51t27.5 -83t13 -101.5t3 -122
q0 -199 -38 -287.5t-136 -88.5q-34 0 -61 12.5t-44 29.5t-29 50t-18 58.5t-9 72.5t-3.5 74t-0.5 79q0 75 4 129t15 103.5t30 79.5t50 47.5t74 17.5zM257 51v554l-30 -37q-9 -13 -30 -13q-16 0 -29 12.5t-13 30.5q0 16 18 36l73 87q22 28 47 28q20 0 33 -13t13 -39v-646
q0 -40 -41 -40t-41 40zM207 829q0 -5 -9 -19q-63 -98 -95 -213q-31 -112 -31 -221q0 -136 38 -245t86 -180q8 -12 8 -20t-6 -14t-16 -6q-14 0 -25 19q-69 105 -103 245q-24 97 -24 201q0 119 32 234q35 125 102 224q9 14 21 14q9 0 15.5 -5.5t6.5 -13.5zM796 828
q0 8 6.5 13.5t16.5 5.5q11 0 23 -18q128 -205 128 -451t-133 -452q-7 -15 -21 -15q-9 0 -15.5 5.5t-6.5 14.5q0 6 9 21q62 90 97 218q28 100 28 208q0 227 -117 420q-15 22 -15 30z" />
    <glyph glyph-name="Japan1.8081" 
d="M294 54v553l-26 -33q-15 -18 -35 -18q-17 0 -29.5 13t-12.5 32q0 15 19 38l73 85q22 28 47 28q46 0 46 -54v-644q0 -41 -41 -41t-41 41zM641 51v553l-24 -31q-16 -19 -35 -19q-17 0 -30 13t-13 31q0 16 19 39l74 87q22 26 46 26q45 0 45 -53v-646q0 -41 -41 -41t-41 41z
M205 830q0 -4 -8 -20q-62 -91 -96 -212q-31 -114 -31 -221q0 -241 124 -426q8 -12 8 -20t-6 -14t-16 -6q-14 0 -25 19q-127 198 -127 447q0 118 32 233q35 128 102 224q9 14 21 14q9 0 15.5 -5.5t6.5 -12.5zM795 827q0 8 6.5 14t16.5 6t23 -19q128 -205 128 -450
q0 -247 -133 -453q-11 -15 -21 -15q-8 0 -15 6t-7 14t9 21q62 90 97 218q28 100 28 209q0 226 -117 419q-15 24 -15 30z" />
    <glyph glyph-name="Japan1.8082" 
d="M566 98h165q40 0 40 -41t-40 -41h-215q-28 0 -43.5 13.5t-15.5 37.5q0 21 14 58q31 84 139 253q78 122 78 203q0 49 -17 73.5t-46 24.5q-20 0 -34 -8.5t-21 -25.5t-9.5 -29t-5.5 -32q-5 -37 -39 -37q-22 0 -34 12t-12 32q0 21 7.5 47.5t23.5 55.5t48.5 48.5t76.5 19.5
q68 0 107 -48t39 -131q0 -62 -22.5 -119t-78.5 -142q-92 -143 -114 -201q-5 -15 -5 -16q0 -7 14 -7zM266 49v555l-26 -34q-14 -17 -33 -17t-31.5 13t-12.5 31q0 15 16 35q72 85 88.5 100.5t35.5 15.5q45 0 45 -53v-646q0 -41 -41 -41t-41 41zM206 830q0 -7 -8 -19
q-63 -94 -96 -213q-31 -112 -31 -221q0 -136 37.5 -245.5t86.5 -180.5q8 -12 8 -20t-6 -14t-16 -6q-12 0 -25 19q-127 198 -127 447q0 119 32 234q38 131 102 223q9 14 22 14q8 0 14.5 -5.5t6.5 -12.5zM795 828q0 8 6.5 13.5t16.5 5.5q12 0 23 -18q128 -205 128 -451
t-132 -453q-11 -15 -21 -15q-9 0 -15.5 6t-6.5 14t9 21q62 91 96 218q28 101 28 209q0 121 -28.5 220t-88.5 200q-15 25 -15 30z" />
    <glyph glyph-name="Japan1.8083" 
d="M685 412q92 -37 92 -189q0 -95 -41 -155t-123 -60q-37 0 -66.5 13.5t-46 32.5t-27 42.5t-14 42t-3.5 32.5q0 21 11 33t30 12q37 0 44 -40q4 -26 8.5 -41t21 -31.5t43.5 -16.5q28 0 46.5 18t25 45.5t8 41.5t1.5 26q0 49 -10.5 81t-29.5 45t-33 16.5t-33 3.5q-43 0 -43 43
t43 43q31 0 51 15.5t27 40.5t9 38.5t2 27.5q0 104 -64 104q-31 0 -49 -28q-5 -7 -7.5 -15t-4.5 -19.5t-4 -18.5q-7 -28 -36 -28q-19 0 -30.5 11t-11.5 31q0 18 6.5 40t21 47.5t45 42.5t71.5 17q61 0 102 -44t41 -137q0 -127 -73 -163zM272 47v553l-29 -35q-10 -13 -29 -13
q-17 0 -30 13.5t-13 29.5q0 17 15 33q68 83 86 100.5t36 17.5q46 0 46 -48v-651q0 -40 -41 -40t-41 40zM206 830q0 -7 -8 -19q-63 -98 -95 -213q-31 -114 -31 -221q0 -136 37.5 -245t85.5 -181q8 -12 8 -20t-6 -14t-15 -6q-13 0 -26 19q-69 108 -102 245q-24 97 -24 202
q0 120 32 233q34 124 101 225q10 13 22 13q8 0 14.5 -5.5t6.5 -12.5zM796 827q0 8 6.5 14t16.5 6q12 0 23 -19q128 -203 128 -450q0 -246 -132 -453q-9 -15 -22 -15q-9 0 -15.5 5.5t-6.5 14.5q0 8 10 21q62 92 96 218q28 100 28 209q0 119 -28.5 218.5t-88.5 201.5
q-15 25 -15 29z" />
    <glyph glyph-name="Japan1.8084" 
d="M657 227v316l-130 -316h130zM733 702v-475q23 0 33.5 -1.5t19.5 -10t9 -27.5t-9 -28t-19.5 -10.5t-33.5 -1.5v-99q0 -38 -38 -38t-38 38v99h-159q-67 0 -67 50q0 15 21 59l196 458q15 34 44 34q41 0 41 -47zM276 49v553l-25 -31q-15 -19 -34 -19q-17 0 -30 13t-13 31
q0 17 23 43l75 88q19 20 45 20q16 0 28.5 -12.5t12.5 -35.5v-650q0 -41 -41 -41t-41 41zM206 830q0 -6 -9 -19q-63 -98 -95 -213q-31 -114 -31 -221q0 -241 124 -426q8 -11 8 -20q0 -8 -6 -14t-16 -6q-14 0 -25 20q-69 105 -103 244q-24 97 -24 202q0 120 32 233
q34 126 102 225q9 14 21 14q9 0 15.5 -5.5t6.5 -13.5zM795 828q0 8 6.5 13.5t16.5 5.5q12 0 23 -19q128 -203 128 -450q0 -246 -132 -453q-11 -15 -21 -15q-9 0 -15.5 6t-6.5 14t9 21q63 95 96 218q28 100 28 209q0 123 -33 234q-28 96 -84 186q-15 25 -15 30z" />
    <glyph glyph-name="Japan1.8085" 
d="M581 644l-14 -183q30 31 77 31q17 0 33 -3.5t36.5 -17.5t35.5 -37t25.5 -66.5t10.5 -101.5q0 -263 -163 -263q-40 0 -70.5 16.5t-46.5 41t-23.5 48.5t-7.5 45q0 20 12 32t29 12q33 0 41 -33q9 -38 11 -45q17 -38 57 -38q46 0 63 48t17 139q0 144 -72 144q-21 0 -36.5 -13
t-35.5 -45q-13 -23 -35 -23q-17 0 -27.5 11t-10.5 29q0 31 1 46l16 264q4 60 61 60h168q40 0 40 -40q0 -41 -40 -41h-133q-11 0 -15 -3.5t-4 -13.5zM269 51v554l-27 -35q-13 -16 -33 -16q-18 0 -30 13t-12 32q0 14 16 34q68 84 85.5 100t36.5 17q46 0 46 -55v-644
q0 -20 -12 -30.5t-31 -10.5q-39 0 -39 41zM205 831q0 -8 -8 -20q-63 -99 -95 -212q-31 -114 -31 -222q0 -136 38 -245t86 -180q7 -13 7 -20q0 -8 -6 -14t-15 -6q-14 0 -25 19q-69 105 -103 245q-24 98 -24 201q0 119 32 234q35 127 102 224q9 14 21 14q8 0 14.5 -5.5
t6.5 -12.5zM795 828q0 8 6.5 13.5t16.5 5.5q12 0 23 -18q128 -205 128 -451t-132 -452q-10 -16 -21 -16q-9 0 -16 6t-7 14t10 21q63 95 96 218q28 100 28 209q0 227 -117 420q-15 25 -15 30z" />
    <glyph glyph-name="Japan1.8086" 
d="M557 299q0 -119 21 -171q19 -45 57 -45q74 0 74 184q0 149 -68 149q-31 0 -54 -18.5t-28 -37.5q-2 -36 -2 -61zM564 460q33 34 87 34q136 0 136 -233q0 -51 -7 -93.5t-23.5 -81.5t-48 -61.5t-76.5 -22.5q-49 0 -81.5 26.5t-47.5 76t-20.5 100.5t-5.5 121q0 216 41 324
q40 104 135 104q58 0 93 -44t35 -80q0 -19 -11.5 -30.5t-29.5 -11.5q-25 0 -35 27q-7 21 -11.5 31.5t-15.5 19t-28 8.5q-26 0 -42 -19t-26 -62q-13 -51 -18 -133zM271 54v553l-26 -33q-13 -17 -31 -17q-19 0 -32 13t-13 32q0 12 16 34q68 82 85.5 99t37.5 17q19 0 32 -12
t13 -38v-648q0 -41 -41 -41t-41 41zM206 830q0 -7 -8 -19q-63 -98 -95 -213q-31 -114 -31 -221q0 -136 37.5 -245.5t86.5 -180.5q7 -11 7 -20q0 -8 -6 -14t-15 -6q-14 0 -25 19q-127 198 -127 447q0 118 32 233q34 126 102 225q9 13 21 13q8 0 14.5 -5.5t6.5 -12.5zM796 827
q0 8 6 14t16 6q12 0 24 -19q128 -203 128 -450t-133 -453q-9 -15 -21 -15q-9 0 -15.5 5.5t-6.5 14.5q0 8 9 21q62 90 97 218q28 100 28 209q0 228 -118 420q-14 23 -14 29z" />
    <glyph glyph-name="Japan1.8087" 
d="M447 565v92q0 48 18.5 66.5t66.5 18.5h178q71 0 71 -59q0 -13 -10 -56l-125 -581q-9 -37 -40 -37q-17 0 -29.5 10t-12.5 25q0 4 5 34l117 542q1 4 2 10t2 10t1 7q0 11 -15 11h-124q-14 0 -18.5 -4.5t-4.5 -18.5v-70q0 -41 -41 -41t-41 41zM265 53v553l-28 -36
q-13 -14 -31 -14q-17 0 -30 13t-13 31q0 15 15 33l80 95q20 23 44 23q20 0 32.5 -12t12.5 -34v-652q0 -41 -41 -41t-41 41zM205 831q0 -5 -9 -19q-63 -98 -95 -213q-31 -114 -31 -221q0 -241 124 -426q8 -12 8 -20t-6 -14t-16 -6q-14 0 -25 19q-127 198 -127 447
q0 120 32 233q14 53 42 115.5t60 108.5q9 14 21 14q9 0 15.5 -5.5t6.5 -12.5zM794 828q0 8 6 14t16 6q12 0 24 -19q128 -203 128 -450t-133 -453q-11 -15 -21 -15q-8 0 -15 6t-7 14q0 7 9 21q62 90 97 218q28 100 28 209q0 119 -28.5 218.5t-88.5 201.5q-15 23 -15 29z" />
    <glyph glyph-name="Japan1.8088" 
d="M622 679q-71 0 -71 -115q0 -119 74 -119q73 0 73 121q0 113 -76 113zM625 367q-88 0 -88 -146q0 -142 89 -142q87 0 87 147q0 61 -20.5 101t-67.5 40zM710 409q7 -2 14 -5.5t20.5 -16.5t23 -31t17.5 -51.5t8 -75.5q0 -225 -167 -225q-40 0 -70.5 12t-48 34.5t-28.5 44
t-15 50t-5 42t-1 30.5q0 49 7.5 85t21 56.5t25 30.5t26.5 19q-65 35 -65 159q0 89 41 138.5t111 49.5q77 0 114 -53.5t37 -142.5q0 -39 -7.5 -69t-19.5 -46t-21.5 -24t-17.5 -11zM259 54v552l-27 -34q-14 -15 -30 -15q-18 0 -31.5 12.5t-13.5 31.5q0 16 18 36q12 13 38.5 45
t37.5 44q21 26 46 26q19 0 31.5 -12t12.5 -37v-649q0 -41 -41 -41t-41 41zM204 829q0 -7 -8 -19q-63 -99 -95 -212q-31 -114 -31 -221q0 -241 124 -426q8 -12 8 -20t-6.5 -14t-15.5 -6q-14 0 -25 20q-69 105 -103 244q-24 97 -24 202q0 120 32 233q34 124 102 224
q9 14 21 14q8 0 14.5 -6t6.5 -13zM794 827q0 8 6.5 13.5t16.5 5.5q12 0 23 -18q128 -205 128 -450q0 -246 -132 -453q-11 -15 -21 -15q-9 0 -15.5 6t-6.5 14t9 21q62 92 96 218q28 100 28 209q0 121 -33 234q-29 95 -84 185q-15 25 -15 30z" />
    <glyph glyph-name="Japan1.8089" 
d="M704 399q0 151 -18.5 211.5t-62.5 60.5t-62 -48q-18 -44 -18 -121q0 -169 75 -169q54 0 86 66zM702 299q-38 -43 -93 -43q-44 0 -74.5 22.5t-45 60.5t-20 74.5t-5.5 78.5q0 21 1 37t5 51t14.5 61t27 53t45.5 42t67 15q32 0 57.5 -12t42 -30t28.5 -49.5t18 -60t9.5 -72
t4.5 -76.5t1 -81q0 -121 -18 -209q-16 -81 -54 -120q-38 -40 -97 -40q-42 0 -73 17.5t-44.5 43t-19.5 46t-6 35.5q0 17 13 28.5t30 11.5q28 0 37 -31q1 -3 3.5 -11.5t5.5 -17.5t8 -17q16 -27 47 -27q26 0 43.5 21.5t28.5 71.5q11 54 13 127zM264 51v553l-27 -34
q-13 -16 -32 -16q-17 0 -30 13t-13 32q0 12 19 36q70 85 85.5 99.5t34.5 14.5t32 -12t13 -38v-648q0 -40 -41 -40t-41 40zM205 829q0 -5 -9 -19q-63 -99 -95 -212q-31 -114 -31 -221q0 -136 38 -245t86 -180q8 -12 8 -20t-6 -14t-16 -6q-14 0 -25 19q-69 107 -103 245
q-24 98 -24 201q0 120 32 233q35 125 102 224q9 14 21 14q8 0 15 -6t7 -13zM794 827q0 8 6.5 14t16.5 6q11 0 23 -19q128 -205 128 -450t-132 -452q-11 -15 -21 -15q-9 0 -15.5 6t-6.5 14q0 7 9 21q14 20 29.5 50t39.5 86t39.5 133t15.5 157q0 123 -33 234q-29 98 -84 185
q-15 25 -15 30z" />
    <glyph glyph-name="Japan1.8090" 
d="M675 674q-15 0 -25 -3.5t-23.5 -18.5t-21.5 -43t-14 -82t-6 -129q0 -183 15 -241q20 -73 73 -73q22 0 38 14t24.5 40t12 48.5t6.5 54.5q5 60 5 144q0 158 -17 223.5t-67 65.5zM677 756q49 0 82.5 -24t51.5 -73.5t25.5 -115t7.5 -159.5q0 -72 -9 -164q-23 -217 -166 -217
q-30 0 -54.5 8.5t-41.5 26.5t-29.5 37t-20 50t-12 53.5t-6 60t-2 57.5t-0.5 57q0 124 11 209q22 194 163 194zM261 99h161q41 0 41 -42q0 -41 -41 -41h-205q-30 0 -46 14.5t-16 37.5q0 37 42.5 122.5t87.5 154.5q35 55 51.5 85t31 72.5t14.5 81.5q0 93 -66 93
q-15 0 -26.5 -6t-17.5 -12.5t-11 -22.5t-7 -25t-5 -30q-6 -37 -44 -37q-19 0 -30 12t-11 32q0 18 5.5 42t20 55.5t47.5 53t79 21.5q147 0 147 -176q0 -68 -24 -125.5t-73 -134.5q-38 -59 -66.5 -111t-39.5 -77.5t-11 -30.5q0 -6 12 -6zM204 829q0 -7 -8 -19
q-63 -98 -95 -213q-31 -112 -31 -221q0 -238 123 -425q8 -11 8 -20q0 -8 -6 -14t-15 -6q-13 0 -26 20q-68 106 -102 244q-24 97 -24 201q0 120 32 233q34 124 101 225q11 14 22 14q8 0 14.5 -6t6.5 -13zM794 827q0 8 6.5 13.5t16.5 5.5q11 0 23 -18q128 -205 128 -451
t-133 -452q-9 -15 -21 -15q-8 0 -15 6t-7 14t9 21q13 18 28.5 47t40 85t40.5 134t16 160q0 227 -117 420q-15 25 -15 30z" />
    <glyph glyph-name="Japan1.8091" 
d="M503 820q-182 0 -310.5 -128.5t-128.5 -310.5t128.5 -310.5t310.5 -128.5q181 0 309.5 128.5t128.5 310.5t-128 310.5t-310 128.5zM503 861q130 0 240.5 -64.5t174.5 -175t64 -240.5t-64 -240.5t-174.5 -175t-240.5 -64.5t-240.5 64.5t-175 175t-64.5 240.5t64.5 240.5
t175 175t240.5 64.5zM285 166h179q38 0 38 -38q0 -37 -38 -37h-219q-55 0 -55 45q0 62 93 179q13 16 37.5 43.5t34.5 40.5q38 46 53 75t15 57q0 34 -18 55.5t-51 21.5q-31 0 -51 -16.5t-24.5 -29.5t-5.5 -24q-6 -42 -37 -42q-17 0 -28.5 11t-11.5 28q0 49 39.5 97t114.5 48
q70 0 110.5 -40t40.5 -104q0 -80 -75 -167q-70 -80 -87.5 -101.5t-34.5 -49.5q-26 -44 -26 -48t7 -4zM656 129v444l-37 -32q-11 -11 -25 -11t-25.5 12t-11.5 28t18 30q62 52 83 68q19 13 36 13q39 0 39 -45v-507q0 -38 -39 -38q-38 0 -38 38z" />
    <glyph glyph-name="Japan1.8092" 
d="M454 3v513q0 47 47 47q48 0 48 -47v-513q0 -48 -48 -48q-47 0 -47 48zM499 803q33 0 52 -18.5t19 -49.5q0 -29 -19.5 -48.5t-52.5 -19.5q-31 0 -50.5 19t-19.5 48q0 30 19 49.5t52 19.5z" />
    <glyph glyph-name="Japan1.8093" 
d="M609 3v516q0 47 47 47t47 -47v-516q0 -47 -47 -47t-47 47zM654 805q32 0 52 -19t20 -49t-20 -49t-52 -19t-51.5 19t-19.5 50q0 29 20 48t51 19zM297 4v515q0 47 47 47t47 -47v-515q0 -47 -47 -47t-47 47zM343 806q32 0 52 -19t20 -49t-20.5 -49t-52.5 -19q-31 0 -50.5 19
t-19.5 49t20 49t51 19z" />
    <glyph glyph-name="Japan1.8094" 
d="M453 4v515q0 47 47 47t47 -47v-515q0 -47 -47 -47t-47 47zM500 806q32 0 52 -19t20 -49t-20 -49t-52 -19t-51.5 19t-19.5 50q0 29 20 48t51 19zM198 3v515q0 47 46 47q47 0 47 -47v-515q0 -47 -47 -47q-46 0 -46 47zM244 805q32 0 52 -19t20 -49t-20 -49t-52 -19
t-51.5 19t-19.5 50q0 29 20 48t51 19zM757 804q32 0 52 -19t20 -49q0 -29 -20.5 -48.5t-51.5 -19.5q-32 0 -51.5 19t-19.5 50q0 30 19.5 48.5t51.5 18.5zM710 2v515q0 47 47 47t47 -47v-515q0 -47 -47 -47t-47 47z" />
    <glyph glyph-name="Japan1.8095" 
d="M432 529l175 -467l168 462q13 37 45 37q21 0 36 -13t15 -31q0 -11 -12 -39l-167 -431q-10 -27 -16.5 -40t-16.5 -28.5t-22.5 -21.5t-29.5 -6t-29 5t-22 19t-15.5 27l-17.5 43l-172 430q-12 30 -12 41q0 20 14.5 32t36.5 12q31 0 42 -31zM220 804q32 0 52 -19t20 -49
q0 -29 -20.5 -48.5t-51.5 -19.5t-51 19.5t-20 49.5q0 29 20 48t51 19zM176 2v512q0 46 47 46t47 -46v-512q0 -47 -47 -47t-47 47z" />
    <glyph glyph-name="Japan1.8096" 
d="M318 524l184 -459l182 461q16 38 44 38q26 0 40 -12t14 -29q0 -12 -10 -40l-183 -434q-13 -30 -19.5 -43t-17 -27t-22 -18.5t-29.5 -4.5q-17 0 -29 5t-20.5 16.5t-13.5 20.5t-12 27l-195 454q-12 28 -12 40q0 18 14.5 31.5t35.5 13.5q32 0 49 -40z" />
    <glyph glyph-name="Japan1.8097" 
d="M220 528l170 -466l171 464q12 34 44 34q19 0 34 -12t15 -33q0 -7 -11 -40l-165 -419q-23 -60 -37.5 -79t-49.5 -19q-36 0 -50.5 18t-35.5 73l-171 435q-9 25 -9 33q0 19 13.5 31.5t34.5 12.5q34 0 47 -33zM772 805q32 0 52 -19t20 -49q0 -29 -20.5 -48.5t-51.5 -19.5
q-32 0 -51.5 19t-19.5 50q0 29 20 48t51 19zM727 4v510q0 47 47 47t47 -47v-510q0 -47 -47 -47t-47 47z" />
    <glyph glyph-name="Japan1.8098" 
d="M175 520l124 -461l127 458q11 42 45 42q23 0 36.5 -11.5t13.5 -29.5q0 -8 -8 -36l-130 -432q-8 -26 -12.5 -39t-14 -29t-23.5 -22.5t-33 -6.5q-21 0 -35.5 6.5t-24 22t-14 27.5t-11.5 37l-125 434q-7 28 -7 35q0 21 14.5 32.5t32.5 11.5q35 0 45 -39zM570 2v515
q0 44 44 44q45 0 45 -44v-515q0 -44 -45 -44q-44 0 -44 44zM777 3v514q0 44 44 44q45 0 45 -44v-514q0 -45 -45 -45q-44 0 -44 45zM821 804q28 0 47.5 -19t19.5 -47t-19.5 -47t-47.5 -19t-47.5 19.5t-19.5 46.5q0 28 19.5 47t47.5 19zM613 804q28 0 47.5 -19.5t19.5 -46.5
q0 -28 -19.5 -47.5t-47.5 -19.5q-27 0 -46.5 19.5t-19.5 47.5q0 27 19.5 46.5t46.5 19.5z" />
    <glyph glyph-name="Japan1.8099" 
d="M144 522l111 -471l119 470q10 39 45 39q19 0 32 -12t13 -28q0 -9 -7 -37l-117 -438q-7 -25 -11.5 -36.5t-13.5 -26.5t-23.5 -21t-36.5 -6t-37.5 8t-24.5 25t-13 30t-10 37l-108 426q-8 30 -8 38q0 18 13.5 29t34.5 11q32 0 42 -37zM517 0v515q0 43 42 43q43 0 43 -43
v-515q0 -43 -43 -43q-42 0 -42 43zM666 -3v518q0 43 43 43t43 -43v-518q0 -42 -43 -42t-43 42zM817 -3v520q0 42 42 42q43 0 43 -42v-520q0 -43 -43 -43q-42 0 -42 43zM711 804q26 0 44.5 -18.5t18.5 -44.5t-18.5 -44t-44.5 -18q-25 0 -43.5 18.5t-18.5 43.5q0 26 18 44.5
t44 18.5zM861 802q26 0 44.5 -18t18.5 -44t-18.5 -44.5t-44.5 -18.5t-44 18.5t-18 44.5t18.5 44t43.5 18zM560 804q26 0 44.5 -18.5t18.5 -44.5t-18.5 -44t-44.5 -18t-44 18.5t-18 43.5q0 26 18 44.5t44 18.5z" />
    <glyph glyph-name="Japan1.8100" 
d="M185 0v514q0 46 46 46q47 0 47 -46v-514q0 -47 -47 -47q-46 0 -46 47zM803 458l-148 -182l204 -243q17 -22 17 -35q0 -17 -15 -30.5t-35 -13.5q-14 0 -23 8t-40 47l-165 203l-151 -196q-33 -43 -44 -53t-27 -10q-19 0 -33 15t-14 32q0 12 17 35l200 242l-141 166
q-2 3 -13 16l-16 19q-20 24 -20 37q0 20 14 32.5t30 12.5q28 0 46 -23l155 -197l149 196q17 24 43 24q18 0 31.5 -12.5t13.5 -30.5q0 -12 -12 -29zM230 802q31 0 51 -19t20 -48q0 -30 -20 -49.5t-51 -19.5t-51 19t-20 49t20 49t51 19z" />
    <glyph glyph-name="Japan1.8101" 
d="M740 482l-178 -206l207 -234q21 -23 21 -40t-15 -30.5t-33 -13.5q-21 0 -41 21l-200 236l-196 -234q-22 -26 -44 -26q-17 0 -32 15t-15 33q0 17 20 38l211 239l-180 205q-19 22 -19 38q0 19 15 31.5t34 12.5q21 0 39 -20l171 -204l161 196q14 16 23 22t24 6q17 0 32 -14
t15 -33q0 -16 -20 -38z" />
    <glyph glyph-name="Japan1.8102" 
d="M503 820q-182 0 -310.5 -128.5t-128.5 -310.5t128.5 -310.5t310.5 -128.5q181 0 309.5 128.5t128.5 310.5t-128 310.5t-310 128.5zM503 861q130 0 240.5 -64.5t174.5 -175t64 -240.5t-64 -240.5t-174.5 -175t-240.5 -64.5t-240.5 64.5t-175 175t-64.5 240.5t64.5 240.5
t175 175t240.5 64.5zM266 166h179q38 0 38 -38q0 -37 -38 -37h-219q-55 0 -55 45q0 62 93 179q13 16 37.5 43.5t34.5 40.5q38 46 53 75t15 57q0 34 -18 55.5t-51 21.5q-31 0 -51 -16.5t-24.5 -29.5t-5.5 -24q-6 -42 -37 -42q-17 0 -28.5 11t-11.5 28q0 49 39.5 97t114.5 48
q70 0 110.5 -40t40.5 -104q0 -80 -75 -167q-70 -80 -87.5 -101.5t-34.5 -49.5q-26 -44 -26 -48t7 -4zM601 166h179q37 0 37 -37q0 -38 -37 -38h-218q-56 0 -56 48q0 32 28.5 81.5t56 83.5l75.5 89q73 82 73 142q0 30 -18.5 51.5t-54.5 21.5q-22 0 -37.5 -7.5t-24 -22.5
t-11.5 -25t-7 -28q-6 -28 -35 -28q-38 0 -38 39q0 53 40.5 99t116.5 46q60 0 103.5 -39.5t43.5 -107.5q0 -85 -95 -187q-83 -91 -116 -151q-12 -23 -12 -26q0 -4 7 -4z" />
    <glyph glyph-name="Japan1.8103" 
d="M503 820q-182 0 -310.5 -128.5t-128.5 -310.5t128.5 -310.5t310.5 -128.5q181 0 309.5 128.5t128.5 310.5t-128 310.5t-310 128.5zM503 861q130 0 240.5 -64.5t174.5 -175t64 -240.5t-64 -240.5t-174.5 -175t-240.5 -64.5t-240.5 64.5t-175 175t-64.5 240.5t64.5 240.5
t175 175t240.5 64.5zM271 166h179q38 0 38 -38q0 -37 -38 -37h-219q-55 0 -55 45q0 62 93 179q13 16 37.5 43.5t34.5 40.5q38 46 53 75t15 57q0 34 -18 55.5t-51 21.5q-31 0 -51 -16.5t-24.5 -29.5t-5.5 -24q-6 -42 -37 -42q-17 0 -28.5 11t-11.5 28q0 49 39.5 97t114.5 48
q70 0 110.5 -40t40.5 -104q0 -80 -75 -167q-70 -80 -87.5 -101.5t-34.5 -49.5q-26 -44 -26 -48t7 -4zM758 413q44 -13 70 -52.5t26 -97.5q0 -74 -47.5 -123t-118.5 -49q-44 0 -78.5 16t-51.5 39.5t-25 43t-8 32.5q0 17 12.5 28t28.5 11q31 0 39 -33q15 -63 83 -63
q40 0 65.5 28t25.5 72q0 29 -9.5 49.5t-22 30.5t-32.5 15.5t-31.5 6.5t-28.5 1q-39 0 -39 35q0 34 38 36q30 1 46 6t33 22q27 28 27 73q0 34 -19.5 56.5t-54.5 22.5q-33 0 -49.5 -15.5t-27.5 -43.5q-9 -26 -40 -26q-16 0 -25.5 9t-9.5 23q0 15 8.5 34t24.5 40t47.5 35.5
t70.5 14.5q67 0 107.5 -40t40.5 -108q0 -49 -20.5 -82.5t-54.5 -46.5z" />
    <glyph glyph-name="Japan1.8104" 
d="M503 820q-182 0 -310.5 -128.5t-128.5 -310.5t128.5 -310.5t310.5 -128.5q181 0 309.5 128.5t128.5 310.5t-128 310.5t-310 128.5zM503 861q130 0 240.5 -64.5t174.5 -175t64 -240.5t-64 -240.5t-174.5 -175t-240.5 -64.5t-240.5 64.5t-175 175t-64.5 240.5t64.5 240.5
t175 175t240.5 64.5zM565 269h139v251zM779 635v-366q21 0 30 -1t17 -9t8 -25q0 -23 -12.5 -28.5t-42.5 -5.5v-70q0 -39 -40 -39q-35 0 -35 37v72h-185q-42 0 -42 36q0 17 14 42l205 375q16 27 42 27q41 0 41 -45zM271 166h179q38 0 38 -38q0 -37 -38 -37h-219q-55 0 -55 45
q0 62 93 179q13 16 37.5 43.5t34.5 40.5q38 46 53 75t15 57q0 34 -18 55.5t-51 21.5q-31 0 -51 -16.5t-24.5 -29.5t-5.5 -24q-6 -42 -37 -42q-17 0 -28.5 11t-11.5 28q0 49 39.5 97t114.5 48q70 0 110.5 -40t40.5 -104q0 -80 -75 -167q-70 -80 -87.5 -101.5t-34.5 -49.5
q-26 -44 -26 -48t7 -4z" />
    <glyph glyph-name="Japan1.8105" 
d="M503 820q-182 0 -310.5 -128.5t-128.5 -310.5t128.5 -310.5t310.5 -128.5q181 0 309.5 128.5t128.5 310.5t-128 310.5t-310 128.5zM503 861q130 0 240.5 -64.5t174.5 -175t64 -240.5t-64 -240.5t-174.5 -175t-240.5 -64.5t-240.5 64.5t-175 175t-64.5 240.5t64.5 240.5
t175 175t240.5 64.5zM271 166h179q38 0 38 -38q0 -37 -38 -37h-219q-55 0 -55 45q0 62 93 179q13 16 37.5 43.5t34.5 40.5q38 46 53 75t15 57q0 34 -18 55.5t-51 21.5q-31 0 -51 -16.5t-24.5 -29.5t-5.5 -24q-6 -42 -37 -42q-17 0 -28.5 11t-11.5 28q0 49 39.5 97t114.5 48
q70 0 110.5 -40t40.5 -104q0 -80 -75 -167q-70 -80 -87.5 -101.5t-34.5 -49.5q-26 -44 -26 -48t7 -4zM610 578l-15 -118q40 25 89 25q66 0 105 -49t39 -138q0 -95 -46 -151t-124 -56q-41 0 -73.5 17t-49 41t-24.5 44t-8 32q0 17 12 27.5t29 10.5q24 0 34 -30q23 -68 80 -68
q29 0 48.5 13t28.5 35t12.5 41t3.5 40q0 118 -82 118q-45 0 -74 -39q-16 -20 -38 -20q-18 0 -29 11.5t-11 29.5q0 8 6 62l18 168q3 31 19 43t51 12h170q37 0 37 -37t-37 -37h-149q-11 0 -16 -5.5t-6 -21.5z" />
    <glyph glyph-name="Japan1.8106" 
d="M589 457q40 39 95 39q66 0 104.5 -54.5t38.5 -142.5q0 -96 -42.5 -152t-111.5 -56q-164 0 -164 284q0 317 175 317q56 0 92 -35t36 -64q0 -17 -11.5 -28t-26.5 -11q-26 0 -38 24q-20 41 -55 41t-61 -43.5t-31 -118.5zM271 166h179q38 0 38 -38q0 -37 -38 -37h-219
q-55 0 -55 45q0 62 93 179q13 16 37.5 43.5t34.5 40.5q38 46 53 75t15 57q0 34 -18 55.5t-51 21.5q-31 0 -51 -16.5t-24.5 -29.5t-5.5 -24q-6 -42 -37 -42q-17 0 -28.5 11t-11.5 28q0 49 39.5 97t114.5 48q70 0 110.5 -40t40.5 -104q0 -80 -75 -167q-70 -80 -87.5 -101.5
t-34.5 -49.5q-26 -44 -26 -48t7 -4zM671 422q-21 0 -45 -14t-41 -40q-1 -7 -1 -23q0 -26 5 -61q15 -121 84 -121q40 0 60 37t20 99q0 123 -82 123zM503 820q-182 0 -310.5 -128.5t-128.5 -310.5t128.5 -310.5t310.5 -128.5q181 0 309.5 128.5t128.5 310.5t-128 310.5
t-310 128.5zM503 861q130 0 240.5 -64.5t174.5 -175t64 -240.5t-64 -240.5t-174.5 -175t-240.5 -64.5t-240.5 64.5t-175 175t-64.5 240.5t64.5 240.5t175 175t240.5 64.5z" />
    <glyph glyph-name="Japan1.8107" 
d="M503 820q-182 0 -310.5 -128.5t-128.5 -310.5t128.5 -310.5t310.5 -128.5q181 0 309.5 128.5t128.5 310.5t-128 310.5t-310 128.5zM503 861q130 0 240.5 -64.5t174.5 -175t64 -240.5t-64 -240.5t-174.5 -175t-240.5 -64.5t-240.5 64.5t-175 175t-64.5 240.5t64.5 240.5
t175 175t240.5 64.5zM265 166h179q38 0 38 -38q0 -37 -38 -37h-219q-55 0 -55 45q0 62 93 179q13 16 37.5 43.5t34.5 40.5q38 46 53 75t15 57q0 34 -18 55.5t-51 21.5q-31 0 -51 -16.5t-24.5 -29.5t-5.5 -24q-6 -42 -37 -42q-17 0 -28.5 11t-11.5 28q0 49 39.5 97t114.5 48
q70 0 110.5 -40t40.5 -104q0 -80 -75 -167q-70 -80 -87.5 -101.5t-34.5 -49.5q-26 -44 -26 -48t7 -4zM506 542v78q0 60 60 60h212q27 0 38.5 -10.5t11.5 -32.5q0 -7 -16 -69l-125 -441q-11 -36 -42 -36q-17 0 -27.5 9.5t-10.5 22.5q0 10 8 38l120 412q8 22 8 30q0 6 -8 6
h-133q-14 0 -18.5 -4.5t-4.5 -18.5v-44q0 -37 -37 -37q-36 0 -36 37z" />
    <glyph glyph-name="Japan1.8108" 
d="M679 619q-76 0 -76 -92q0 -43 21 -63.5t51 -20.5q15 0 30 5.5t30 27t15 56.5q0 40 -19.5 63.5t-51.5 23.5zM677 374q-41 0 -64 -27.5t-23 -77.5q0 -43 20 -74.5t62 -31.5q84 0 84 106q0 54 -23 79.5t-56 25.5zM753 413q38 -16 58 -53q21 -39 21 -96q0 -83 -46.5 -128
t-106.5 -45q-74 0 -120 46t-46 126q0 108 82 148q-28 8 -47 40.5t-19 83.5q0 62 38.5 108t110.5 46q68 0 106.5 -42.5t38.5 -114.5q0 -44 -21 -78t-49 -41zM503 820q-182 0 -310.5 -128.5t-128.5 -310.5t128.5 -310.5t310.5 -128.5q181 0 309.5 128.5t128.5 310.5
t-128 310.5t-310 128.5zM503 861q130 0 240.5 -64.5t174.5 -175t64 -240.5t-64 -240.5t-174.5 -175t-240.5 -64.5t-240.5 64.5t-175 175t-64.5 240.5t64.5 240.5t175 175t240.5 64.5zM271 166h179q38 0 38 -38q0 -37 -38 -37h-219q-55 0 -55 45q0 62 93 179q13 16 37.5 43.5
t34.5 40.5q38 46 53 75t15 57q0 34 -18 55.5t-51 21.5q-31 0 -51 -16.5t-24.5 -29.5t-5.5 -24q-6 -42 -37 -42q-17 0 -28.5 11t-11.5 28q0 49 39.5 97t114.5 48q70 0 110.5 -40t40.5 -104q0 -80 -75 -167q-70 -80 -87.5 -101.5t-34.5 -49.5q-26 -44 -26 -48t7 -4z" />
    <glyph glyph-name="Japan1.8109" 
d="M503 820q-182 0 -310.5 -128.5t-128.5 -310.5t128.5 -310.5t310.5 -128.5q181 0 309.5 128.5t128.5 310.5t-128 310.5t-310 128.5zM503 861q130 0 240.5 -64.5t174.5 -175t64 -240.5t-64 -240.5t-174.5 -175t-240.5 -64.5t-240.5 64.5t-175 175t-64.5 240.5t64.5 240.5
t175 175t240.5 64.5zM759 412q0 208 -88 208q-38 0 -58 -35.5t-20 -99.5q0 -124 74 -124q50 0 92 51zM757 329q-41 -41 -102 -41q-32 0 -57 11t-39 31t-23 39t-12 44t-4 37t-1 26q0 32 4.5 62t19 68.5t48.5 62t85 23.5q50 0 92.5 -39t56.5 -126q10 -54 10 -126
q0 -310 -171 -310q-34 0 -61.5 13.5t-41 32t-20.5 33.5t-7 24q0 16 12.5 27.5t28.5 11.5q27 0 35 -25q17 -45 55 -45q41 0 63.5 40t28.5 126zM271 166h179q38 0 38 -38q0 -37 -38 -37h-219q-55 0 -55 45q0 62 93 179q13 16 37.5 43.5t34.5 40.5q38 46 53 75t15 57
q0 34 -18 55.5t-51 21.5q-31 0 -51 -16.5t-24.5 -29.5t-5.5 -24q-6 -42 -37 -42q-17 0 -28.5 11t-11.5 28q0 49 39.5 97t114.5 48q70 0 110.5 -40t40.5 -104q0 -80 -75 -167q-70 -80 -87.5 -101.5t-34.5 -49.5q-26 -44 -26 -48t7 -4z" />
    <glyph glyph-name="Japan1.8110" 
d="M503 820q-182 0 -310.5 -128.5t-128.5 -310.5t128.5 -310.5t310.5 -128.5q181 0 309.5 128.5t128.5 310.5t-128 310.5t-310 128.5zM503 861q130 0 240.5 -64.5t174.5 -175t64 -240.5t-64 -240.5t-174.5 -175t-240.5 -64.5t-240.5 64.5t-175 175t-64.5 240.5t64.5 240.5
t175 175t240.5 64.5zM692 606q-20 0 -36 -14t-24.5 -39.5t-14.5 -49.5t-8 -54t-2.5 -42.5t-0.5 -26.5q0 -227 84 -227q77 0 77 228q0 225 -75 225zM686 678q162 0 162 -297q0 -301 -155 -301q-166 0 -166 301q0 297 159 297zM405 401q44 -13 70 -52.5t26 -97.5
q0 -74 -47.5 -123t-118.5 -49q-44 0 -78.5 16t-51.5 39.5t-25 43t-8 32.5q0 17 12.5 28t28.5 11q31 0 39 -33q15 -63 83 -63q40 0 65.5 28t25.5 72q0 29 -9.5 49.5t-22 30.5t-32.5 15.5t-31.5 6.5t-28.5 1q-39 0 -39 35q0 34 38 36q30 1 46 6t33 22q27 28 27 73
q0 34 -19.5 56.5t-54.5 22.5q-33 0 -49.5 -15.5t-27.5 -43.5q-9 -26 -40 -26q-16 0 -25.5 9t-9.5 23q0 15 8.5 34t24.5 40t47.5 35.5t70.5 14.5q67 0 107.5 -40t40.5 -108q0 -49 -20.5 -82.5t-54.5 -46.5z" />
    <glyph glyph-name="Japan1.8111" 
d="M503 820q-182 0 -310.5 -128.5t-128.5 -310.5t128.5 -310.5t310.5 -128.5q181 0 309.5 128.5t128.5 310.5t-128 310.5t-310 128.5zM503 861q130 0 240.5 -64.5t174.5 -175t64 -240.5t-64 -240.5t-174.5 -175t-240.5 -64.5t-240.5 64.5t-175 175t-64.5 240.5t64.5 240.5
t175 175t240.5 64.5zM408 401q44 -13 70 -52.5t26 -97.5q0 -74 -47.5 -123t-118.5 -49q-44 0 -78.5 16t-51.5 39.5t-25 43t-8 32.5q0 17 12.5 28t28.5 11q31 0 39 -33q15 -63 83 -63q40 0 65.5 28t25.5 72q0 29 -9.5 49.5t-22 30.5t-32.5 15.5t-31.5 6.5t-28.5 1
q-39 0 -39 35q0 34 38 36q30 1 46 6t33 22q27 28 27 73q0 34 -19.5 56.5t-54.5 22.5q-33 0 -49.5 -15.5t-27.5 -43.5q-9 -26 -40 -26q-16 0 -25.5 9t-9.5 23q0 15 8.5 34t24.5 40t47.5 35.5t70.5 14.5q67 0 107.5 -40t40.5 -108q0 -49 -20.5 -82.5t-54.5 -46.5zM658 125v444
l-37 -32q-11 -11 -25 -11t-25.5 12t-11.5 28t18 30q62 52 83 68q19 13 36 13q39 0 39 -45v-507q0 -38 -39 -38q-38 0 -38 38z" />
    <glyph glyph-name="Japan1.8112" 
d="M627 387q-32 -11 -157 -23q-134 -12 -134 -93q0 -39 32.5 -62t88.5 -23q105 0 171 74q-2 32 -2 49q0 13 0.5 39.5t0.5 38.5zM640 175q-80 -68 -185 -68q-96 0 -149.5 41.5t-53.5 113.5q0 55 31.5 97.5t92.5 62.5q40 12 107 18q110 8 145 23q0 47 -22 72q-30 36 -102 36
q-82 0 -137 -56q-25 -26 -44 -26q-16 0 -28.5 11.5t-12.5 29.5q0 33 64 75.5t159 42.5q128 0 180 -78q24 -38 24 -122q0 -19 -1.5 -64.5t-1.5 -64.5q0 -83 19 -121q2 -5 5.5 -12.5l5.5 -11.5t3.5 -10.5t1.5 -12.5q0 -16 -14.5 -27.5t-31.5 -11.5q-36 0 -55 63zM206 827
q0 -4 -21 -41q-114 -192 -114 -410q0 -153 58 -298q27 -68 57 -114q17 -26 17 -34t-6 -14t-16 -6q-8 0 -16 8t-21 31q-115 200 -115 427q0 217 102 405q25 45 33.5 54.5t19.5 9.5q22 0 22 -18zM795 826q0 8 6 13.5t15 5.5q14 0 28 -21q126 -210 126 -449q0 -225 -119 -431
q-12 -21 -19 -28t-15 -7q-9 0 -15.5 6t-6.5 14q0 7 16 33q117 188 117 414q0 155 -59 301q-32 77 -64 126q-10 13 -10 23z" />
    <glyph glyph-name="Japan1.8113" 
d="M532 90q67 0 110 53.5t43 142.5q0 83 -43.5 135.5t-112.5 52.5q-58 0 -102 -34.5t-53 -80.5q-2 -18 -2 -71q0 -61 6 -86.5t32 -56.5q47 -55 122 -55zM372 710v-228q56 70 161 70q107 0 173 -76.5t66 -188.5q0 -136 -69 -205.5t-169 -69.5q-52 0 -95 18.5t-67 52.5
q0 -18 -1 -27t-4.5 -19.5t-12.5 -15t-25 -4.5q-43 0 -43 43v650q0 43 43 43t43 -43zM206 829q0 -4 -3 -10.5t-9 -16l-9 -14.5q-114 -192 -114 -411q0 -154 58 -299q27 -68 57 -114q17 -26 17 -33q0 -9 -6 -15t-16 -6q-16 0 -37 39q-115 200 -115 428q0 217 102 405
q16 30 31 51q9 14 22 14q22 0 22 -18zM794 828q0 8 6 13.5t15 5.5q15 0 28 -22q126 -210 126 -449q0 -226 -119 -432q-12 -21 -19 -28t-15 -7q-9 0 -15.5 6t-6.5 14q0 7 16 33q117 185 117 415q0 226 -115 415q-18 28 -18 36z" />
    <glyph glyph-name="Japan1.8114" 
d="M717 522q0 -20 -13.5 -32.5t-32.5 -12.5q-22 0 -42 30q-41 61 -122 61q-72 0 -117 -53.5t-45 -139.5q0 -91 47.5 -138t116.5 -47q82 0 129 63q20 27 40 27q19 0 32.5 -12.5t13.5 -30.5q0 -38 -63.5 -84t-157.5 -46q-28 0 -58 6.5t-65 24.5t-61.5 46.5t-44.5 77.5t-18 112
q0 125 72.5 200t182.5 75q89 0 147.5 -46.5t58.5 -80.5zM205 829q0 -5 -21 -40q-114 -193 -114 -412q0 -153 58 -298q25 -65 57 -114q17 -25 17 -34q0 -8 -6 -14t-16 -6q-8 0 -16 8t-21 31q-115 200 -115 428q0 217 102 405q25 45 33.5 55t19.5 10q10 0 16 -5.5t6 -13.5z
M794 827q0 8 6 13.5t15 5.5q14 0 27 -21q126 -210 126 -449q0 -226 -119 -432q-12 -21 -19 -28t-15 -7q-9 0 -15.5 6t-6.5 14t17 33q116 187 116 415q0 227 -115 414q-17 31 -17 36z" />
    <glyph glyph-name="Japan1.8115" 
d="M630 292q0 58 -2 69q-8 44 -52 79.5t-104 35.5q-70 0 -112 -54.5t-42 -141.5q0 -77 40 -132.5t117 -55.5q66 0 105.5 43t47.5 89q2 12 2 68zM716 712v-653q0 -43 -43 -43q-16 0 -25 4.5t-12.5 15t-4.5 19.5t-1 27q-53 -69 -158 -69q-116 0 -180.5 77t-64.5 189
q0 120 67.5 197.5t174.5 77.5q105 0 161 -67v225q0 43 43 43t43 -43zM205 830q0 -4 -3.5 -10.5t-9 -15.5t-8.5 -15q-114 -192 -114 -411q0 -79 14.5 -154.5t37 -129.5t37.5 -82.5t26 -45.5q17 -28 17 -34q0 -9 -6 -15t-16 -6q-9 0 -16.5 8t-20.5 31q-115 200 -115 428
q0 218 102 406q25 45 33.5 55t19.5 10q10 0 16 -5.5t6 -13.5zM793 829q0 8 6 13.5t15 5.5t14.5 -4.5t13.5 -16.5q126 -212 126 -450q0 -226 -119 -432q-12 -21 -19 -28t-15 -7q-9 0 -15.5 6t-6.5 14q0 7 16 33q117 184 117 415q0 222 -115 415q-18 28 -18 36z" />
    <glyph glyph-name="Japan1.8116" 
d="M344 432h289q19 0 19 16q0 12 -7.5 30t-23 40t-46.5 37t-71 15q-67 0 -109 -43t-51 -95zM665 357h-324q-1 -26 7.5 -53.5t27 -54t53.5 -43.5t82 -17q89 0 136 59q9 12 13 16t12 8.5t17 4.5q19 0 32.5 -13t13.5 -28q0 -14 -14 -34t-39.5 -41.5t-71 -36.5t-100.5 -15
q-66 0 -117 22.5t-81 60.5t-45.5 84.5t-15.5 97.5q0 67 25.5 127t85 103t142.5 43q54 0 97 -17t69 -42.5t43 -57.5t23.5 -58.5t6.5 -48.5q0 -66 -78 -66zM205 829q0 -5 -21 -40q-114 -193 -114 -412q0 -152 58 -297q25 -65 57 -114q17 -26 17 -34q0 -20 -22 -20q-8 0 -16 8
t-21 30q-115 200 -115 428q0 217 102 405q25 45 33.5 55t19.5 10q10 0 16 -5.5t6 -13.5zM794 828q0 8 6 13.5t15 5.5q14 0 27 -21q126 -210 126 -450q0 -225 -119 -431q-12 -21 -19 -28t-15 -7q-9 0 -15.5 6t-6.5 14q0 5 17 33q116 187 116 414q0 226 -115 415
q-17 29 -17 36z" />
    <glyph glyph-name="Japan1.8117" 
d="M515 589v-61h118q39 0 39 -38q0 -39 -39 -39h-118v-397q0 -45 -45 -45q-44 0 -44 45v397h-78q-39 0 -39 39q0 38 39 38h78v68q0 105 83 137q37 14 80 14q109 0 109 -51q0 -19 -11 -30.5t-30 -11.5q-8 0 -29.5 5.5t-39.5 5.5q-73 0 -73 -76zM203 830q0 -6 -21 -41
q-114 -192 -114 -410q0 -66 11.5 -132.5t26 -111t34 -86.5t28 -57t15.5 -25q17 -28 17 -34q0 -9 -6 -15t-16 -6q-14 0 -37 39q-115 200 -115 428q0 216 102 404q16 30 31 51q9 14 22 14q22 0 22 -18zM792 828q0 8 6 13.5t15 5.5q15 0 28 -21q126 -210 126 -448
q0 -226 -119 -432q-12 -21 -19 -28t-15 -7q-9 0 -15.5 6t-6.5 14q0 7 16 33q117 184 117 415q0 226 -115 413q-18 29 -18 36z" />
    <glyph glyph-name="Japan1.8118" 
d="M639 622q34 -35 34 -97q0 -68 -49.5 -112t-144.5 -44q-44 0 -79 10q-31 -10 -31 -26q0 -17 39 -26q42 -8 117 -14l52 -5t49.5 -7.5t48 -14.5t37 -22.5t27.5 -34t9 -46.5q0 -141 -243 -141q-133 0 -199 36t-66 97q0 35 21.5 65t61.5 44q-39 21 -39 57q0 22 14.5 41
t40.5 27q-30 17 -46.5 50t-16.5 74q0 72 55.5 115t138.5 43q61 0 110 -19q57 49 127 49q24 0 35 -12.5t11 -31.5q0 -16 -11.5 -25t-29.5 -9q-51 0 -73 -21zM474 623q-51 0 -85 -26t-34 -70q0 -43 32.5 -67t85.5 -24q55 0 88 24.5t33 68.5q0 40 -32 67t-88 27zM404 251
q-17 0 -49.5 -18t-32.5 -50q0 -34 50.5 -50t126.5 -16q163 0 163 60q0 30 -41 42q-25 7 -120 19q-81 10 -97 13zM206 827q0 -5 -21 -40q-114 -193 -114 -411q0 -154 58 -298q26 -68 57 -115q17 -26 17 -33q0 -9 -6 -15t-16 -6q-8 0 -16 8t-21 31q-115 200 -115 429
q0 216 102 404q25 45 33.5 55t19.5 10q10 0 16 -5.5t6 -13.5zM795 827q0 8 6 13.5t16 5.5q14 0 27 -22q126 -210 126 -448q0 -227 -119 -433q-12 -21 -19 -28t-15 -7t-14.5 6t-6.5 15q0 6 16 32q116 189 116 416q0 225 -115 414q-18 28 -18 36z" />
    <glyph glyph-name="Japan1.8119" 
d="M276 56v648q0 44 43 44q44 0 44 -44v-243q71 85 193 85q16 0 30.5 -1t45.5 -11.5t52.5 -28t39 -56.5t17.5 -92v-303q0 -44 -45 -44q-44 0 -44 44v307q0 49 -27 77.5t-77 28.5q-72 0 -129 -53t-56 -109v-249q0 -44 -44 -44q-43 0 -43 44zM206 829q0 -5 -21 -40
q-114 -193 -114 -412q0 -153 58 -297q26 -68 57 -115q17 -25 17 -34q0 -8 -6 -14t-16 -6q-8 0 -16 8t-21 31q-115 200 -115 428q0 217 102 405q25 45 33.5 55t19.5 10q10 0 16 -5.5t6 -13.5zM795 828q0 8 6 13.5t15 5.5q14 0 27 -22q126 -210 126 -449q0 -226 -119 -432
q-13 -21 -19 -28t-15 -7q-8 0 -14.5 6t-6.5 14q0 7 16 33q116 189 116 415t-115 415q-17 29 -17 36z" />
    <glyph glyph-name="Japan1.8120" 
d="M454 55v443q0 44 44 44q45 0 45 -44v-443q0 -44 -45 -44q-44 0 -44 44zM499 748q31 0 48 -19t17 -41q0 -29 -19 -47t-47 -18t-46 18t-18 45t18 44.5t47 17.5zM205 829q0 -6 -21 -41q-114 -193 -114 -411q0 -154 58 -298q26 -68 57 -115q17 -26 17 -33q0 -9 -6 -15t-16 -6
q-8 0 -16 8t-21 31q-115 200 -115 428q0 217 102 405q16 30 31 51q9 14 22 14q22 0 22 -18zM795 827q0 8 6 13.5t15 5.5q14 0 27 -21q126 -210 126 -449q0 -226 -119 -432q-12 -21 -19 -28t-15 -7q-9 0 -15.5 6t-6.5 14q0 7 16 33q117 185 117 415q0 226 -115 415
q-17 26 -17 35z" />
    <glyph glyph-name="Japan1.8121" 
d="M541 809q30 0 48 -17.5t18 -44.5q0 -28 -18 -45.5t-47 -17.5q-28 0 -46 17.5t-18 44.5t18 45t45 18zM500 161v396q0 44 44 44t44 -44v-409q0 -72 -14 -109t-51 -61q-38 -25 -93 -25q-59 0 -99.5 27t-40.5 55q0 18 12.5 32.5t33.5 14.5q16 0 38 -22q24 -21 55 -21
q21 0 35 7t21 16.5t10.5 28.5t4 31.5t0.5 38.5zM206 828q0 -5 -21 -40q-114 -192 -114 -411q0 -66 11.5 -132.5t26 -111t34 -86.5t28 -57t15.5 -25q17 -28 17 -34q0 -9 -6 -15t-16 -6q-8 0 -16 8t-21 31q-115 200 -115 428q0 219 102 405l14.5 26t12 19t14 15.5t12.5 4.5
q10 0 16 -5.5t6 -13.5zM795 828q0 8 6 13.5t15 5.5q14 0 27 -21q126 -207 126 -449q0 -226 -119 -432q-13 -22 -19 -29t-15 -7q-8 0 -14.5 6t-6.5 15q0 6 16 32q116 189 116 415t-115 415q-17 29 -17 36z" />
    <glyph glyph-name="Japan1.8122" 
d="M300 56v648q0 44 44 44q45 0 45 -44v-402l241 222q19 17 37 17q17 0 29.5 -12.5t12.5 -29.5t-31 -44l-148 -129l203 -240q15 -18 15 -34q0 -19 -13 -31t-32 -12q-23 0 -43 26l-194 237l-77 -69v-147q0 -44 -45 -44q-44 0 -44 44zM205 830q0 -6 -21 -41
q-114 -192 -114 -411q0 -66 11.5 -132.5t26 -111t34 -86.5t28 -57t15.5 -25q18 -27 18 -34q0 -20 -23 -20q-8 0 -16 8t-21 30q-115 200 -115 428q0 217 102 405q16 30 31 51q9 14 22 14q22 0 22 -18zM795 829q0 8 6 13.5t15 5.5q14 0 27 -22q126 -210 126 -449
q0 -226 -119 -432q-12 -21 -19 -28t-15 -7q-9 0 -15.5 6t-6.5 15q0 4 17 32q116 189 116 415t-115 415q-17 29 -17 36z" />
    <glyph glyph-name="Japan1.8123" 
d="M454 58v644q0 45 45 45t45 -45v-644q0 -44 -45 -44t-45 44zM205 829q0 -6 -21 -41q-114 -192 -114 -411q0 -153 58 -298q25 -65 57 -114q17 -25 17 -34q0 -8 -6 -14t-16 -6q-8 0 -16 8t-21 31q-115 200 -115 427q0 219 102 405q16 30 31 51q9 14 22 14q22 0 22 -18z
M795 828q0 8 6 13.5t15 5.5q14 0 27 -21q126 -210 126 -449q0 -226 -119 -432q-12 -21 -19 -28t-15 -7q-9 0 -15.5 6t-6.5 14t17 33q116 187 116 415q0 225 -115 414q-17 28 -17 36z" />
    <glyph glyph-name="Japan1.8124" 
d="M191 152v450q0 42 42 42q29 0 35.5 -15t6.5 -53q60 71 135 71q47 0 78 -28t38 -61q65 90 148 90q59 0 97.5 -35.5t38.5 -117.5v-341q0 -43 -43 -43t-43 43v327q0 19 -1 30t-5.5 27.5t-16 24.5t-29.5 8q-52 0 -97 -60q-22 -29 -29 -48.5t-7 -47.5v-261q0 -41 -42 -41
q-41 0 -41 41v275q0 40 -1 58.5t-6 41.5t-17 32t-32 9q-46 0 -85.5 -46t-39.5 -82v-290q0 -42 -42 -42t-42 42zM206 829q0 -6 -21 -41q-114 -192 -114 -411q0 -153 58 -298q27 -69 58 -114q17 -25 17 -34t-6.5 -14.5t-15.5 -5.5t-16.5 7.5t-21.5 30.5q-115 200 -115 428
q0 217 102 405l12 21l11.5 18.5l7.5 11.5q10 14 23 14q9 0 15 -5t6 -13zM795 828q0 8 6 13.5t15 5.5q14 0 27 -21q126 -210 126 -449q0 -226 -119 -432q-12 -21 -19 -28t-15 -7q-9 0 -15.5 6t-6.5 14q0 5 17 33q116 187 116 415q0 225 -115 414q-17 31 -17 36z" />
    <glyph glyph-name="Japan1.8125" 
d="M268 158v444q0 43 43 43q44 0 44 -43v-42q78 87 197 87q90 0 136 -50.5t46 -141.5v-299q0 -44 -44 -44t-44 44v286q0 126 -104 126q-69 0 -128 -53t-59 -117v-240q0 -43 -44 -43q-43 0 -43 43zM206 828q0 -5 -21 -40q-114 -193 -114 -411q0 -67 12 -134t27.5 -113.5
t33.5 -86.5t28 -57t14 -21q17 -28 17 -34q0 -9 -6 -15t-16 -6q-8 0 -16 8t-21 31q-115 200 -115 428q0 217 102 405q25 45 33.5 55t19.5 10q10 0 16 -5.5t6 -13.5zM795 827q0 8 6 13.5t15 5.5q14 0 27 -21q126 -207 126 -449q0 -226 -119 -432q-12 -21 -18.5 -28t-14.5 -7
q-9 0 -15.5 6t-6.5 14q0 7 16 33q116 187 116 415q0 222 -114 414q-18 29 -18 36z" />
    <glyph glyph-name="Japan1.8126" 
d="M503 569q-78 0 -125 -53t-47 -140q0 -81 48 -133.5t121 -52.5q71 0 118 50.5t47 135.5q0 99 -49 146t-113 47zM497 648q107 0 182 -70t75 -197q0 -119 -71 -194.5t-189 -75.5q-41 0 -83 15t-80.5 45t-63 83.5t-24.5 121.5q0 69 23 123t60.5 85.5t81 47.5t89.5 16z
M205 829q0 -4 -3 -10.5t-9 -16l-9 -14.5q-114 -192 -114 -410q0 -133 36 -240t79 -172q17 -26 17 -34q0 -20 -22 -20q-9 0 -16.5 8t-20.5 30q-115 200 -115 428q0 217 102 405q24 43 33.5 53.5t19.5 10.5q9 0 15.5 -5.5t6.5 -12.5zM793 828q0 8 6 13.5t16 5.5q14 0 27 -21
q126 -210 126 -449q0 -226 -119 -432q-12 -21 -19 -28t-15 -7q-9 0 -15.5 6t-6.5 14q0 7 16 33q117 187 117 415q0 225 -115 414q-18 28 -18 36z" />
    <glyph glyph-name="Japan1.8127" 
d="M364 427q0 -57 5 -79t27 -48q51 -58 129 -58q70 0 111.5 51.5t41.5 133.5q0 18 -3 38t-13.5 47t-27 48t-47 36t-70.5 15q-59 0 -100.5 -37.5t-50.5 -87.5q-2 -8 -2 -59zM280 84v559q0 42 42 42q20 0 29.5 -10t11 -20.5t1.5 -34.5q64 68 162 68q106 0 173 -75t67 -187
q0 -106 -62 -184t-176 -78q-104 0 -164 71v-151q0 -42 -42 -42t-42 42zM206 830q0 -6 -21 -41q-114 -192 -114 -411q0 -153 58 -298q27 -69 58 -114q17 -26 17 -34q0 -9 -6.5 -14.5t-15.5 -5.5t-16.5 7.5t-21.5 30.5q-115 200 -115 428q0 217 102 405q16 30 31 51
q9 14 22 14q22 0 22 -18zM795 828q0 8 6 13.5t15 5.5q14 0 27 -21q126 -210 126 -450q0 -225 -119 -431q-12 -21 -19 -28.5t-15 -7.5q-9 0 -15.5 6t-6.5 15q0 6 16 32q117 187 117 415q0 226 -115 415q-17 26 -17 36z" />
    <glyph glyph-name="Japan1.8128" 
d="M475 615q-43 0 -76 -18.5t-50.5 -48.5t-26 -61.5t-8.5 -63.5q0 -81 41.5 -131t113.5 -50q104 0 147 96q12 28 12 92q0 72 -13 98q-24 45 -63 66t-77 21zM628 83v153q-66 -71 -165 -71q-110 0 -174 75t-64 183q0 117 67.5 192t174.5 75q103 0 161 -69q0 20 0.5 29t4.5 20
t13 15t24 4q43 0 43 -42v-564q0 -42 -43 -42q-42 0 -42 42zM205 829q0 -6 -21 -41q-114 -192 -114 -412q0 -153 58 -298q25 -65 57 -114q17 -26 17 -34t-6 -14t-16 -6q-8 0 -16 8t-21 31q-115 200 -115 428q0 219 102 405q16 30 31 51q9 14 22 14q22 0 22 -18zM794 829
q0 8 6 13.5t15 5.5q14 0 28 -22q126 -210 126 -449q0 -226 -119 -432q-13 -22 -19.5 -29t-14.5 -7q-9 0 -15.5 6t-6.5 15q0 6 16 32q117 187 117 415q0 223 -115 416q-18 28 -18 36z" />
    <glyph glyph-name="Japan1.8129" 
d="M353 155v445q0 43 44 43t44 -43v-41q8 11 19.5 22t34 28.5t57.5 28t75 10.5q23 0 36.5 -2t26 -13.5t12.5 -32.5q0 -17 -10.5 -29t-28.5 -12q-8 0 -22 2t-24 2q-67 0 -123 -53q-33 -29 -43 -57t-10 -67v-231q0 -44 -44 -44t-44 44zM205 828q0 -5 -21 -40
q-114 -193 -114 -412q0 -153 58 -297q26 -68 57 -115q17 -26 17 -34t-6 -14t-16 -6q-8 0 -16 8t-21 31q-115 200 -115 428q0 217 102 405q25 45 33.5 55t19.5 10q10 0 16 -5.5t6 -13.5zM794 827q0 8 6 13.5t15 5.5q14 0 27 -21q126 -210 126 -449q0 -226 -119 -432
q-12 -21 -19 -28t-15 -7t-14.5 6t-6.5 14q0 7 16 33q116 187 116 415q0 227 -115 414q-17 31 -17 36z" />
    <glyph glyph-name="Japan1.8130" 
d="M713 266q0 -69 -52.5 -112.5t-159.5 -43.5q-56 0 -101.5 14.5t-70.5 35t-38 39.5t-13 31q0 20 13.5 32.5t31.5 12.5t36 -23q48 -62 142 -62q124 0 124 73q0 34 -30.5 50.5t-118.5 39.5q-27 7 -44 12t-43.5 17.5t-42.5 26.5t-28 37t-12 52q0 63 48 107t146 44
q77 0 134.5 -32t57.5 -65q0 -18 -12.5 -29.5t-28.5 -11.5q-15 0 -39 20q-45 41 -116 41q-49 0 -76.5 -18.5t-27.5 -50.5q0 -29 31 -45t115 -37q31 -8 48 -13t45 -17.5t43 -27.5t27 -40t12 -57zM207 829q0 -6 -21 -41q-114 -192 -114 -411q0 -153 58 -298q25 -65 57 -114
q18 -27 18 -34q0 -8 -6.5 -14t-15.5 -6t-17 8t-21 31q-115 200 -115 427q0 217 102 405q16 30 31 51q9 14 22 14q22 0 22 -18zM796 828q0 8 6 13.5t15 5.5q14 0 27 -21q126 -209 126 -449q0 -226 -119 -432q-12 -21 -18.5 -28t-15.5 -7q-8 0 -14.5 6t-6.5 14q0 7 16 33
q116 187 116 414q0 226 -115 415q-17 29 -17 36z" />
    <glyph glyph-name="Japan1.8131" 
d="M411 570v104q0 44 44 44t44 -44v-104h116q39 0 39 -39t-39 -39h-116v-301q0 -68 49 -68q35 0 67 39q18 23 37 23q18 0 32 -12t14 -30q0 -30 -46 -66.5t-103 -36.5q-39 0 -67 12t-41.5 27t-20.5 39t-8 37t-1 32v305h-81q-39 0 -39 39t39 39h81zM205 829q0 -4 -3.5 -10.5
t-9 -15.5t-8.5 -15q-114 -192 -114 -411q0 -153 58 -298q25 -65 57 -114q17 -28 17 -34q0 -9 -6 -15t-16 -6q-15 0 -37 39q-115 200 -115 429q0 217 102 405q25 45 33.5 55t19.5 10q10 0 16 -5.5t6 -13.5zM794 827q0 8 6 13.5t15 5.5q14 0 27 -21q126 -210 126 -449
q0 -227 -119 -433q-12 -21 -19 -28t-15 -7q-9 0 -15.5 6t-6.5 15q0 7 17 32q116 189 116 416t-115 414q-17 28 -17 36z" />
    <glyph glyph-name="Japan1.8132" 
d="M266 315v287q0 44 44 44t44 -44v-273q0 -137 111 -137q69 0 124.5 54.5t55.5 114.5v239q0 44 44 44t44 -44v-436q0 -44 -44 -44t-44 44v34q-35 -48 -88.5 -66.5t-102.5 -18.5q-41 0 -73.5 10.5t-51 27.5t-27 27.5t-13.5 21.5q-23 39 -23 115zM205 829q0 -4 -21 -41
q-114 -192 -114 -411q0 -153 58 -297q26 -68 57 -115q17 -25 17 -34q0 -8 -6 -14t-16 -6q-8 0 -16 8t-21 31q-115 200 -115 427q0 218 102 406q25 45 33.5 54.5t19.5 9.5q22 0 22 -18zM794 828q0 8 6 13.5t15 5.5q14 0 28 -22q126 -210 126 -449q0 -225 -119 -431
q-12 -21 -19 -28.5t-15 -7.5q-9 0 -15.5 6t-6.5 15q0 6 16 32q117 187 117 415q0 222 -115 415q-18 28 -18 36z" />
    <glyph glyph-name="Japan1.8133" 
d="M344 596l152 -389l155 381q16 38 47 38q20 0 33 -11.5t13 -28.5q0 -12 -16 -51l-168 -388q-22 -50 -64 -50q-44 0 -64 50l-167 400q-14 31 -14 40q0 19 14.5 31t33.5 12q31 0 45 -34zM205 829q0 -5 -21 -40q-114 -193 -114 -411q0 -154 58 -298q26 -68 57 -115
q17 -25 17 -33q0 -9 -6 -15t-16 -6q-8 0 -16 8t-21 31q-115 200 -115 428q0 217 102 405q25 45 33.5 55t19.5 10q10 0 16 -5.5t6 -13.5zM795 828q0 8 6 13.5t15 5.5q14 0 27 -21q126 -210 126 -449q0 -226 -119 -432q-12 -21 -19 -28t-15 -7q-9 0 -15.5 6t-6.5 14t17 33
q116 187 116 415q0 225 -115 414q-17 28 -17 36z" />
    <glyph glyph-name="Japan1.8134" 
d="M239 593l104 -344l104 334q14 47 47 47q38 0 53 -47l102 -334l110 344q12 37 43 37q18 0 30.5 -11.5t12.5 -27.5q0 -12 -16 -58l-118 -360q-15 -44 -28 -59.5t-34 -15.5q-20 0 -33 14t-27 61l-93 302l-91 -302q-13 -45 -26 -60t-36 -15q-21 0 -34.5 15t-27.5 60l-113 360
q-15 43 -15 57q0 18 14 29t33 11q29 0 39 -37zM205 828q0 -5 -3 -11.5t-9 -15.5t-9 -14q-114 -192 -114 -411q0 -66 11.5 -132.5t26 -111t34 -86.5t28 -57t15.5 -25q17 -26 17 -34q0 -20 -22 -20q-15 0 -37 38q-115 200 -115 428q0 217 102 405q16 30 31 51q9 14 22 14
q22 0 22 -18zM795 827q0 8 6 13.5t15 5.5q14 0 27 -21q126 -210 126 -449q0 -226 -119 -432q-12 -21 -19 -28t-15 -7q-9 0 -15.5 6t-6.5 14q0 5 17 33q116 187 116 414q0 226 -115 415q-17 29 -17 36z" />
    <glyph glyph-name="Japan1.8135" 
d="M362 621l138 -165l136 164q22 26 41 26t33.5 -12t14.5 -33q0 -9 -5 -16.5t-27 -33.5l-138 -160l174 -196q20 -26 20 -38q0 -18 -14 -30.5t-32 -12.5q-14 0 -25.5 9.5t-33.5 35.5l-147 173l-147 -173q-24 -28 -35 -37t-25 -9q-16 0 -30.5 13t-14.5 30q0 16 23 44l175 195
l-154 177q-15 18 -15 32q0 18 12.5 30.5t31.5 12.5q22 0 44 -26zM205 829q0 -5 -21 -40q-114 -193 -114 -411q0 -154 58 -298q26 -68 57 -115q17 -25 17 -33q0 -9 -6 -15t-16 -6q-8 0 -16 8t-21 31q-115 200 -115 428q0 217 102 405q25 45 33.5 55t19.5 10q10 0 16 -5.5
t6 -13.5zM795 828q0 8 6 13.5t15 5.5q14 0 27 -21q126 -210 126 -449q0 -226 -119 -432q-12 -21 -19 -28t-15 -7q-9 0 -15.5 6t-6.5 14t17 33q116 187 116 414q0 226 -115 415q-17 26 -17 36z" />
    <glyph glyph-name="Japan1.8136" 
d="M344 650l160 -357l156 358q17 39 44 39q19 0 33 -10.5t14 -29.5q0 -15 -19 -57l-198 -430q-29 -61 -65 -89t-107 -28q-74 0 -74 46q0 18 11 29.5t29 11.5q5 0 21 -1t27 -1q15 0 25 2.5t26.5 19t29.5 47.5l-192 406q-13 26 -13 42q0 19 14.5 30t32.5 11q28 0 45 -39z
M206 829q0 -5 -3 -11.5t-9 -15.5t-9 -14q-114 -192 -114 -411q0 -66 11.5 -132.5t26 -111t34 -86.5t28 -57t15.5 -25q17 -25 17 -34q0 -8 -6 -14t-16 -6q-16 0 -37 39q-115 200 -115 427q0 217 102 405q16 30 31 51q9 14 22 14q22 0 22 -18zM795 828q0 8 6 13.5t15 5.5
q14 0 27 -21q126 -212 126 -450q0 -225 -119 -431q-12 -21 -19 -28t-15 -7q-9 0 -15.5 6t-6.5 14q0 5 17 33q116 187 116 414q0 226 -115 415q-17 29 -17 36z" />
    <glyph glyph-name="Japan1.8137" 
d="M577 561h-227q-40 0 -40 39q0 40 40 40h284q26 0 40 -11.5t14 -30.5q0 -21 -17 -41l-271 -357h274q40 0 40 -40t-40 -40h-341q-48 0 -48 41q0 17 19 42zM204 829q0 -4 -3.5 -10.5t-9 -15.5l-8.5 -14q-114 -193 -114 -412q0 -152 57 -297q29 -70 58 -115q17 -25 17 -34
q0 -8 -6 -14t-16 -6q-9 0 -16.5 8t-20.5 31q-115 200 -115 428q0 217 102 405q25 45 33.5 55t19.5 10q10 0 16 -5.5t6 -13.5zM793 828q0 8 6 13.5t15 5.5q14 0 27 -21q126 -210 126 -449q0 -226 -119 -432q-12 -21 -19 -28t-15 -7t-14.5 6t-6.5 14q0 7 16 33
q116 187 116 415q0 227 -115 414q-17 31 -17 36z" />
    <glyph glyph-name="Japan1.8184" 
d="M221 744l-55 -31q-14 -8 -27 -8t-23 8.5t-10 19.5q0 15 22 27q76 40 95 48.5t33 8.5q41 0 41 -35v-378q0 -28 -35 -28q-36 0 -36 28v338q0 3 -2 3q-1 0 -3 -1zM915 749l-802 -806q-21 -21 -41 -15.5t-21.5 26.5t16.5 42l795 799q18 18 38 12.5t24.5 -23.5t-9.5 -35z
M829 -68h-182q-43 0 -43 44q0 20 19 55q33 60 108 142q37 43 49.5 64t12.5 44q0 26 -14.5 41.5t-41.5 15.5q-47 0 -65 -61q-7 -27 -28 -27q-12 0 -21.5 10.5t-9.5 25.5q0 10 6.5 28t19.5 39.5t39 37t59 15.5q58 0 88 -36.5t30 -86.5q0 -67 -60 -132q-6 -6 -23 -24.5
t-26 -29.5q-20 -21 -42.5 -52t-26.5 -43h152q29 0 29 -35t-29 -35z" />
    <glyph glyph-name="Japan1.8185" 
d="M658 70h111v216zM829 385v-315q17 0 24.5 -1t13.5 -8t6 -21t-6 -21t-13.5 -8t-24.5 -1v-61q0 -33 -32 -33q-28 0 -28 32v62h-148q-15 0 -24 8.5t-9 22.5q0 15 11 37l164 323q13 23 34 23q32 0 32 -39zM113 -57q-21 -21 -41 -15.5t-21.5 26.5t16.5 42l795 799
q18 18 38 12.5t24.5 -23.5t-9.5 -35zM297 782v-378q0 -28 -35 -28q-36 0 -36 28v338q0 3 -2 3q-1 0 -3 -1l-55 -31q-14 -8 -27 -8t-23 8.5t-10 19.5q0 15 22 27q76 40 95 48.5t33 8.5q41 0 41 -35z" />
    <glyph glyph-name="Japan1.8224" 
d="M503 820q-182 0 -310.5 -128.5t-128.5 -310.5t128.5 -310.5t310.5 -128.5q181 0 309.5 128.5t128.5 310.5t-128 310.5t-310 128.5zM503 861q130 0 240.5 -64.5t174.5 -175t64 -240.5t-64 -240.5t-174.5 -175t-240.5 -64.5t-240.5 64.5t-175 175t-64.5 240.5t64.5 240.5
t175 175t240.5 64.5zM368 383q0 -66 12 -113.5t33 -71t43 -33.5t47 -10q130 0 130 231q0 121 -36 176.5t-97 55.5q-59 0 -95.5 -56.5t-36.5 -178.5zM291 383q0 145 56.5 223.5t153.5 78.5q96 0 152 -75t56 -217q0 -148 -54.5 -226.5t-151.5 -78.5q-90 0 -144 60
q-68 75 -68 235z" />
    <glyph glyph-name="Japan1.8225" 
d="M788 5v746q0 51 51 51q52 0 52 -51v-746q0 -51 -52 -51q-51 0 -51 51zM183 778l202 -300l195 299q16 26 43 26q18 0 35 -14.5t17 -34.5t-32 -64l-200 -289l251 -357q15 -21 15 -39q0 -20 -16.5 -34t-36.5 -14q-18 0 -27.5 9t-39.5 52l-205 303l-207 -309q-16 -24 -23 -33
t-17 -16t-22 -7q-22 0 -38.5 14.5t-16.5 33.5q0 18 14 38l252 360l-199 282q-39 53 -39 72t16.5 33t36.5 14q24 0 42 -25z" />
    <glyph glyph-name="Japan1.8226" 
d="M513 697l-160 -298l196 -360q13 -26 13 -39q0 -18 -16.5 -31.5t-35.5 -13.5q-18 0 -27.5 10.5t-26.5 46.5l-156 303l-152 -299q-14 -27 -20.5 -37.5t-16.5 -18t-24 -7.5q-18 0 -33.5 13.5t-15.5 32.5q0 13 13 36l198 371l-154 285q-30 52 -30 69q0 19 14.5 32.5
t35.5 13.5q26 0 42 -30l146 -284l141 280q17 33 43 33q22 0 36.5 -13.5t14.5 -30.5q0 -15 -25 -64zM600 4v755q0 47 47 47t47 -47v-755q0 -47 -47 -47t-47 47zM816 5v754q0 47 47 47t47 -47v-754q0 -48 -47 -48t-47 48z" />
    <glyph glyph-name="Japan1.8227" 
d="M340 375q0 -84 15 -143.5t41 -88.5t53 -41t58 -12q160 0 160 290q0 287 -163 287q-73 0 -118.5 -69.5t-45.5 -222.5zM245 374q0 182 70 280t190 98q119 0 188 -93t69 -272q0 -187 -67.5 -284.5t-187.5 -97.5q-112 0 -178 77q-84 96 -84 292zM206 830q0 -8 -8 -20
q-62 -94 -95 -212q-31 -114 -31 -221q0 -241 124 -426q8 -12 8 -20t-6 -14t-16 -6q-14 0 -25 19q-127 198 -127 447q0 118 32 233q35 128 102 224q9 14 21 14q8 0 14.5 -5.5t6.5 -12.5zM796 828q0 8 6.5 13.5t16.5 5.5q12 0 23 -18q128 -205 128 -451t-132 -452
q-10 -16 -21 -16q-9 0 -15.5 6t-6.5 15q0 7 9 20q63 95 96 219q28 100 28 208q0 123 -33 234q-28 96 -84 186q-15 25 -15 30z" />
    <glyph glyph-name="Japan1.8228" 
d="M344 301l286 286q-42 80 -126 80q-73 0 -118.5 -69.5t-45.5 -222.5q0 -45 4 -74zM655 513l-295 -296q39 -127 147 -127q160 0 160 290q0 78 -12 133zM730 588q32 -81 32 -201q0 -187 -67.5 -284.5t-187.5 -97.5q-112 0 -178 77q-23 26 -42 62l-87 -87
q-21 -21 -40.5 -15.5t-21 26.5t15.5 42l107 108q-16 64 -16 156q0 182 70 280t190 98q124 0 192 -98l60 60q18 18 38 12.5t24.5 -23.5t-9.5 -35z" />
    <glyph glyph-name="Japan1.8286" 
d="M560 127v500q0 55 -48 55q-16 0 -36 -11t-98 -61q-1 -1 -5.5 -4t-6.5 -4t-5.5 -4t-5.5 -5t-4.5 -5.5t-3.5 -7t-2 -7.5t-1 -9q0 -17 12.5 -31t31.5 -14q18 0 63 34q9 7 12 7t3 -9v-424q0 -47 47 -47t47 47zM500 861q130 0 240.5 -64.5t175 -175t64.5 -240.5t-64.5 -240.5
t-175 -175t-240.5 -64.5t-240.5 64.5t-175 175t-64.5 240.5t64.5 240.5t175 175t240.5 64.5z" />
    <glyph glyph-name="Japan1.8287" 
d="M353 91h309q42 0 42 41q0 42 -42 42h-248q-7 0 -7 5q0 4 20.5 27.5t27.5 30.5q22 23 43 42.5t57 49.5t46 39q50 42 72.5 80t22.5 85q0 76 -52.5 117.5t-130.5 41.5q-46 0 -83 -14t-58 -34t-35.5 -43t-19.5 -38.5t-5 -23.5q0 -19 13 -30.5t34 -11.5q19 0 27.5 9t20.5 37
q5 12 13 24.5t34 28t61 15.5q42 0 66.5 -21t24.5 -54q0 -34 -22 -60t-89 -85q-106 -89 -165 -169q-35 -48 -35 -80q0 -27 18 -39t40 -12zM500 861q130 0 240.5 -64.5t175 -175t64.5 -240.5t-64.5 -240.5t-175 -175t-240.5 -64.5t-240.5 64.5t-175 175t-64.5 240.5
t64.5 240.5t175 175t240.5 64.5z" />
    <glyph glyph-name="Japan1.8288" 
d="M604 402q42 14 61.5 51t19.5 75q0 24 -8 47.5t-26.5 49t-58.5 41.5t-96 16q-49 0 -88 -16.5t-60.5 -40.5t-32.5 -47t-11 -40t13 -28t31 -11q28 0 42 29q8 17 14 27t18.5 24t33 20.5t48.5 6.5q45 0 71 -23t26 -59q0 -43 -32 -64.5t-77 -21.5q-4 0 -16.5 0.5t-18.5 0.5
q-50 0 -50 -42q0 -29 18.5 -35.5t70.5 -6.5q39 -1 66.5 -11.5t40 -26.5t17.5 -30.5t5 -29.5q0 -41 -30 -70t-93 -29q-54 0 -81.5 22t-48.5 64q-12 23 -37 23q-20 0 -34 -13t-14 -32q0 -13 11 -34.5t33.5 -48t67.5 -45t103 -18.5q98 0 154 51t56 126q0 60 -31.5 98t-76.5 51z
M499 861q130 0 240.5 -64.5t175 -175t64.5 -240.5t-64.5 -240.5t-175 -175t-240.5 -64.5t-240.5 64.5t-175 175t-64.5 240.5t64.5 240.5t175 175t240.5 64.5z" />
    <glyph glyph-name="Japan1.8289" 
d="M342 272l186 268v-268h-186zM613 127v65h40q39 0 39 40t-39 40h-40v362q0 50 -54 50q-28 0 -45 -25l-269 -383q-13 -20 -13 -35q0 -49 55 -49h241v-65q0 -42 42 -42q43 0 43 42zM500 861q199 0 339.5 -140.5t140.5 -339.5q0 -130 -64.5 -240.5t-175 -175t-240.5 -64.5
t-240.5 64.5t-175 175t-64.5 240.5q0 199 140.5 339.5t339.5 140.5z" />
    <glyph glyph-name="Japan1.8290" 
d="M326 602l-18 -224q0 -2 -0.5 -6t-0.5 -7q0 -40 44 -40q19 0 47 27q39 39 97 39q56 0 88.5 -34.5t32.5 -87.5q0 -49 -30.5 -84t-88.5 -35q-81 0 -113 63q-8 15 -12 20.5t-12.5 11t-20.5 5.5q-19 0 -32 -12.5t-13 -31.5q0 -38 52.5 -87t145.5 -49q92 0 151 55.5t59 149.5
q0 83 -56 139.5t-140 56.5q-57 0 -112 -31l13 130q1 18 19 18h216q40 0 40 40q0 41 -40 41h-245q-36 0 -52 -16.5t-19 -50.5zM500 860q130 0 240.5 -64.5t175 -175t64.5 -240.5t-64.5 -240.5t-175 -175t-240.5 -64.5t-240.5 64.5t-175 175t-64.5 240.5t64.5 240.5t175 175
t240.5 64.5z" />
    <glyph glyph-name="Japan1.8291" 
d="M514 401q50 0 80.5 -32.5t30.5 -84.5q0 -56 -29.5 -92.5t-82.5 -36.5q-35 0 -60 16.5t-37.5 43.5t-17.5 48t-7 43q-1 3 -1 7q0 21 37.5 54.5t86.5 33.5zM389 427q20 176 133 176q49 0 95 -46q18 -16 32 -16q17 0 30 13t13 30q0 30 -49.5 65t-119.5 35q-26 0 -52 -6
t-58 -26.5t-55.5 -53.5t-39.5 -93t-16 -139q0 -74 15.5 -129.5t38 -85t53 -47.5t53.5 -23t46 -5q104 0 153 63t49 149q0 79 -49.5 135.5t-137.5 56.5q-82 0 -134 -53zM500 860q130 0 240.5 -64.5t175 -175t64.5 -240.5t-64.5 -240.5t-175 -175t-240.5 -64.5
q-199 0 -339.5 140.5t-140.5 339.5t140.5 339.5t339.5 140.5z" />
    <glyph glyph-name="Japan1.8292" 
d="M649 670h-282q-67 0 -67 -67v-76q0 -43 43 -43q44 0 44 43v42q0 13 4.5 17.5t17.5 4.5h183q9 0 9 -6l-4 -16l-160 -440q-3 -7 -3 -18q0 -15 13.5 -26t32.5 -11q33 0 45 31l176 490q5 13 5 25q0 23 -15 36.5t-42 13.5zM500 861q130 0 240.5 -64.5t175 -175t64.5 -240.5
q0 -199 -140.5 -339.5t-339.5 -140.5t-339.5 140.5t-140.5 339.5q0 130 64.5 240.5t175 175t240.5 64.5z" />
    <glyph glyph-name="Japan1.8293" 
d="M617 402q37 17 57.5 50.5t20.5 71.5q0 75 -54.5 117t-140.5 42q-59 0 -101 -16.5t-62 -43t-28 -51t-8 -49.5q0 -79 75 -121q-37 -15 -67 -53.5t-30 -96.5q0 -73 60.5 -124.5t161.5 -51.5q51 0 98 18t81.5 60t34.5 100q0 100 -98 148zM500 860q130 0 240.5 -64.5t175 -175
t64.5 -240.5t-64.5 -240.5t-175 -175t-240.5 -64.5t-240.5 64.5t-175 175t-64.5 240.5t64.5 240.5t175 175t240.5 64.5zM611 522q0 -40 -30 -63t-79 -23q-53 1 -84.5 24.5t-31.5 63.5q0 37 29 59.5t79 22.5q60 0 88.5 -24.5t28.5 -59.5zM497 357q57 0 94 -28t37 -75
q0 -41 -36.5 -69t-94.5 -28q-50 0 -91 23t-41 74q0 46 35.5 74.5t96.5 28.5z" />
    <glyph glyph-name="Japan1.8294" 
d="M485 350q-43 0 -76.5 26.5t-33.5 94.5q0 55 33 92.5t84 37.5q34 0 59.5 -18.5t38 -46.5t18.5 -54t6 -48q0 -10 -8 -19q-55 -65 -121 -65zM616 326q-4 -27 -7 -44t-12.5 -44t-21.5 -43t-35 -28.5t-52 -12.5q-51 0 -87 40q-4 4 -10 12.5t-10 11.5q-10 10 -27 10
q-18 0 -31 -12.5t-13 -30.5q0 -37 51 -74t124 -37q132 0 186 122q32 72 32 186q0 113 -30 179q-52 121 -183 121q-82 0 -141.5 -58t-59.5 -157q0 -90 55.5 -142.5t134.5 -52.5q76 0 137 54zM498 859q131 0 241.5 -64t175 -174.5t64.5 -241.5q0 -198 -141 -338.5t-340 -140.5
q-97 0 -186 38t-153 102t-102 153t-38 186q0 199 140.5 339.5t338.5 140.5z" />
    <glyph glyph-name="Japan1.8295" 
d="M456 724l-144 -320l170 -373q9 -19 9 -35q0 -18 -14 -30t-34 -12q-31 0 -44 32l-138 318l-139 -323q-13 -28 -44 -28q-20 0 -34 13.5t-14 30.5q0 14 11 37l170 372l-132 289q-25 52 -25 66q0 17 14.5 29.5t35.5 12.5q29 0 44 -32l114 -269l110 267q14 34 41 34
q20 0 36.5 -12t16.5 -32q0 -10 -10 -35zM526 0v759q0 44 44 44t44 -44v-759q0 -44 -44 -44t-44 44zM677 0v758q0 44 44 44t44 -44v-758q0 -44 -44 -44t-44 44zM832 0v758q0 43 44 43t44 -43v-758q0 -44 -44 -44t-44 44z" />
    <glyph glyph-name="Japan1.8296" 
d="M391 693l-111 -289l139 -377q8 -22 8 -32q0 -19 -13.5 -30.5t-30.5 -11.5q-24 0 -34.5 15t-26.5 60l-93 267l-104 -283q-9 -24 -14 -33.5t-15 -17.5t-24 -8q-20 0 -33 13t-13 31q0 12 10 38l143 369l-106 297q-19 50 -19 63q0 18 14.5 30.5t33.5 12.5q32 0 43 -32
l88 -267l87 256q14 40 45 40q21 0 34 -12.5t13 -28.5q0 -15 -21 -70zM456 1v761q0 44 43 44q44 0 44 -44v-761q0 -43 -44 -43q-43 0 -43 43zM663 761l108 -686l116 695q7 41 44 41q18 0 32 -11.5t14 -31.5q0 -10 -6 -44l-121 -671q-5 -25 -8.5 -36.5t-12 -29t-24 -25
t-37.5 -7.5t-37 9t-23 26t-11 28.5t-6 28.5l-117 675q-5 30 -5 42q0 20 13 31.5t32 11.5q42 0 49 -46z" />
    <glyph glyph-name="Japan1.8297" 
d="M481 724l-148 -324l172 -382q6 -15 6 -26q0 -17 -16 -29t-36 -12q-27 0 -39 29l-139 321l-139 -315q-14 -32 -46 -32q-20 0 -33.5 13.5t-13.5 30.5q0 13 10 33l172 374l-146 321q-10 23 -10 32q0 19 14 32.5t35 13.5q30 0 44 -32l116 -275l112 271q15 36 44 36
q23 0 37 -13.5t14 -30.5q0 -16 -10 -36zM610 762l120 -672l130 674q7 43 43 43q24 0 38 -11.5t14 -31.5q0 -10 -9 -52l-143 -690q-15 -67 -75 -67q-27 0 -45.5 17.5t-24.5 49.5l-138 702q-6 28 -6 38q0 19 13.5 31t35.5 12q39 0 47 -43z" />
    <glyph glyph-name="Japan1.8298" 
d="M726 1v513q0 47 47 47t47 -47v-513q0 -47 -47 -47t-47 47zM614 473l-159 -196l199 -241q19 -23 19 -39q0 -17 -15 -30t-33 -13q-22 0 -43 27l-184 232l-187 -238q-17 -22 -38 -22q-16 0 -31.5 14.5t-15.5 31.5q0 13 19 38l199 241l-161 193q-24 29 -24 44q0 18 15 31.5
t35 13.5q19 0 40 -27l151 -192l149 194q19 26 40 26q19 0 33.5 -13.5t14.5 -31.5q0 -14 -23 -43zM771 803q31 0 51 -19t20 -49q0 -29 -20 -48.5t-51 -19.5t-51 19t-20 49t20 49t51 19z" />
    <glyph glyph-name="Japan1.8299" 
d="M505 473l-144 -197l184 -247q13 -17 13 -33q0 -17 -13 -29t-32 -12q-22 0 -41 26l-162 225l-154 -224q-20 -28 -43 -28q-16 0 -30.5 14t-14.5 31q0 12 19 39l172 239l-154 208q-13 18 -13 32q0 19 13 31t30 12q25 0 41 -23l135 -192l128 190q17 25 39 25q18 0 32.5 -14
t14.5 -32q0 -14 -20 -41zM600 -1v517q0 44 44 44t44 -44v-517q0 -44 -44 -44t-44 44zM843 803q28 0 47.5 -19.5t19.5 -46.5q0 -28 -19.5 -47.5t-47.5 -19.5q-27 0 -46.5 19.5t-19.5 47.5q0 27 19.5 46.5t46.5 19.5zM643 804q28 0 47.5 -19.5t19.5 -46.5q0 -28 -19.5 -47.5
t-47.5 -19.5q-27 0 -46.5 19.5t-19.5 47.5q0 27 19.5 46.5t46.5 19.5zM800 0v515q0 44 44 44q45 0 45 -44v-515q0 -45 -45 -45q-44 0 -44 45z" />
    <glyph glyph-name="Japan1.8300" 
d="M445 483l-131 -202l156 -252q12 -21 12 -34q0 -17 -14.5 -29t-31.5 -12q-26 0 -42 30l-129 223l-132 -227q-15 -27 -40 -27q-17 0 -31.5 13t-14.5 29q0 13 16 39l155 249l-128 206q-10 16 -10 29q0 17 13 29t32 12q24 0 40 -27l102 -175l107 175q16 27 38 27
q18 0 31.5 -12t13.5 -29t-12 -35zM526 0v517q0 43 43 43t43 -43v-517q0 -43 -43 -43t-43 43zM675 -2v518q0 43 43 43t43 -43v-518q0 -43 -43 -43t-43 43zM828 -3v520q0 42 43 42t43 -42v-520q0 -42 -43 -42t-43 42zM720 804q26 0 44.5 -18.5t18.5 -44.5t-18.5 -44t-44.5 -18
t-44 18.5t-18 43.5q0 26 18 44.5t44 18.5zM871 802q26 0 44.5 -18t18.5 -44t-18.5 -44t-44.5 -18q-25 0 -43.5 18t-18.5 44t18.5 44t43.5 18zM571 804q26 0 44 -18.5t18 -44.5q0 -25 -18.5 -43.5t-43.5 -18.5q-26 0 -44.5 18t-18.5 44t18.5 44.5t44.5 18.5z" />
    <glyph glyph-name="Japan1.8301" 
d="M395 487l-119 -209l140 -254q8 -16 8 -29q0 -15 -13 -26.5t-31 -11.5q-26 0 -39 26l-111 214l-117 -215q-14 -25 -39 -25q-16 0 -28.5 11.5t-12.5 28.5q0 13 14 37l139 244l-114 211q-10 20 -10 34q0 17 13 27.5t29 10.5q26 0 41 -29l87 -176l91 176q14 29 38 29
q18 0 32 -11t14 -29q0 -10 -12 -34zM456 -1v518q0 43 43 43q44 0 44 -43v-518q0 -43 -44 -43q-43 0 -43 43zM660 525l110 -478l113 472q9 42 42 42q17 0 31 -10t14 -30q0 -6 -7 -39l-108 -428q-7 -27 -11.5 -40.5t-13.5 -30t-23.5 -23t-35.5 -6.5t-36 7t-23.5 22t-12 26
t-8.5 31l-111 445q-7 30 -7 38q0 17 13 27.5t33 10.5q33 0 41 -36zM501 803q26 0 44.5 -18t18.5 -44t-18.5 -44.5t-44.5 -18.5t-44 18.5t-18 44.5q0 25 18.5 43.5t43.5 18.5z" />
    <glyph glyph-name="Japan1.8302" 
d="M473 479l-137 -208l157 -247q11 -19 11 -29q0 -16 -14.5 -28.5t-31.5 -12.5q-25 0 -39 24l-130 216l-131 -211q-20 -31 -43 -31q-17 0 -32 13t-15 30q0 14 16 38l157 237l-137 215q-13 19 -13 34q0 17 14 28.5t33 11.5q23 0 37 -25l114 -192l116 191q14 25 36 25
q19 0 32.5 -12.5t13.5 -29.5q0 -16 -14 -37zM608 525l122 -476l119 471q10 39 45 39q19 0 32.5 -10t13.5 -27q0 -9 -6 -31l-116 -431q-7 -28 -11.5 -41t-14 -31.5t-25 -26t-37.5 -7.5q-21 0 -36 7t-24 21.5t-13.5 27t-9.5 34.5l-120 436q-7 26 -7 38q0 18 13.5 30t32.5 12
q32 0 42 -35z" />
  </font>
</defs>
</svg>
