<?xml version="1.0" encoding="utf-8"?>
<!-- Generator: Adobe Illustrator 22.0.1, SVG Export Plug-In . SVG Version: 6.00 Build 0)  -->
<svg version="1.1" id="Capa_1" xmlns="http://www.w3.org/2000/svg" xmlns:xlink="http://www.w3.org/1999/xlink" x="0px" y="0px"
	 viewBox="0 0 131.8 131.8" style="enable-background:new 0 0 131.8 131.8;" xml:space="preserve">
<style type="text/css">
	.st0{fill:#5488C7;}
	.st1{fill:#FFFFFF;}
	.st2{fill:#EF7D00;}
	.st3{fill:none;stroke:#FFFFFF;stroke-width:5.0017;stroke-miterlimit:10;}
	.st4{fill:none;stroke:#FFFFFF;stroke-width:3.5012;stroke-miterlimit:10;}
	.st5{fill:#FFFFFF;stroke:#FFFFFF;stroke-width:3.3345;stroke-miterlimit:10;}
	.st6{fill:none;stroke:#FFFFFF;stroke-width:3.2737;stroke-miterlimit:10;}
	.st7{fill:none;stroke:#FFFFFF;stroke-width:2.2916;stroke-miterlimit:10;}
	.st8{fill:#FFFFFF;stroke:#FFFFFF;stroke-width:2.1825;stroke-miterlimit:10;}
	.st9{fill:#5488C7;stroke:#02060A;stroke-width:0.6242;stroke-miterlimit:10;}
	.st10{fill:#5488C7;stroke:#191D20;stroke-width:0.6242;stroke-miterlimit:10;}
	.st11{fill:#5488C7;stroke:#303337;stroke-width:0.6242;stroke-miterlimit:10;}
	.st12{fill:#5488C7;stroke:#474A4D;stroke-width:0.6242;stroke-miterlimit:10;}
	.st13{fill:#5488C7;stroke:#5E6163;stroke-width:0.6242;stroke-miterlimit:10;}
	.st14{fill:#5488C7;stroke:#757779;stroke-width:0.6242;stroke-miterlimit:10;}
	.st15{fill:#5488C7;stroke:#8C8E90;stroke-width:0.6242;stroke-miterlimit:10;}
	.st16{fill:#5488C7;stroke:#A3A4A6;stroke-width:0.6242;stroke-miterlimit:10;}
	.st17{fill:#5488C7;stroke:#BABBBC;stroke-width:0.6242;stroke-miterlimit:10;}
	.st18{fill:#5488C7;stroke:#D1D2D2;stroke-width:0.6242;stroke-miterlimit:10;}
	.st19{fill:#5488C7;stroke:#E8E8E9;stroke-width:0.6242;stroke-miterlimit:10;}
	.st20{fill:#5488C7;stroke:#FFFFFF;stroke-width:0.6242;stroke-miterlimit:10;}
	.st21{fill:#FFFFFF;stroke:#5488C7;stroke-width:3;stroke-linecap:round;stroke-miterlimit:10;}
	.st22{fill:#F3F3F3;}
	.st23{fill:none;stroke:#F4F4F4;stroke-width:1.8063;stroke-miterlimit:10;}
	.st24{fill:none;stroke:#F4F4F4;stroke-width:4;stroke-linecap:round;stroke-miterlimit:10;}
</style>
<g>
	<g>
		<path class="st0" d="M24.7,74.4v57.1c1.3,0.2,2.7,0.3,4.1,0.3h4.1V74.1h-4.1C27.4,74.1,26.1,74.2,24.7,74.4z M98.8,74.1v57.6h4.1
			c1.4,0,2.8-0.1,4.1-0.3V74.4c-1.3-0.2-2.7-0.3-4.1-0.3H98.8z M131.8,65.9C131.8,29.5,102.3,0,65.9,0C29.5,0,0,29.5,0,65.9
			c0,7.9,1.4,15.5,3.9,22.5C1.4,92.7,0,97.6,0,102.9c0,11.5,6.7,21.4,16.5,26V76.9c-2.6,1.2-5,2.8-7.1,4.7C8.6,77.9,8.2,74,8.2,70
			c0-31.8,25.8-57.6,57.6-57.6c31.8,0,57.6,25.8,57.6,57.6c0,4-0.4,7.9-1.2,11.6c-2.1-1.9-4.5-3.5-7.1-4.7V129
			c9.7-4.6,16.5-14.6,16.5-26c0-5.3-1.4-10.3-3.9-14.6C130.4,81.4,131.8,73.8,131.8,65.9z"/>
		<path class="st0" d="M45.8,106V94.7c0-1.6-1.3-2.8-2.8-2.8c-1.6,0-2.8,1.3-2.8,2.8V106c0,1.6,1.3,2.8,2.8,2.8
			C44.5,108.8,45.8,107.6,45.8,106z"/>
		<g>
			<path class="st2" d="M54.9,117.8v-33c0-1.6-1.3-2.8-2.8-2.8c-1.6,0-2.8,1.3-2.8,2.8v33c0,1.6,1.3,2.8,2.8,2.8
				C53.6,120.6,54.9,119.3,54.9,117.8z"/>
		</g>
		<path class="st0" d="M64,112.9V94.7c0-1.6-1.3-2.8-2.8-2.8c-1.6,0-2.8,1.3-2.8,2.8v18.2c0,1.6,1.3,2.8,2.8,2.8
			C62.7,115.7,64,114.5,64,112.9z"/>
		<g>
			<path class="st2" d="M88.8,97.5c-1.6,0-2.8,1.3-2.8,2.8V116c0,1.6,1.3,2.8,2.8,2.8c1.6,0,2.8-1.3,2.8-2.8v-15.7
				C91.6,98.8,90.4,97.5,88.8,97.5z"/>
		</g>
		<path class="st0" d="M79.7,77.7c-1.6,0-2.8,1.3-2.8,2.8v42.8c0,1.6,1.3,2.8,2.8,2.8c1.6,0,2.8-1.3,2.8-2.8V80.6
			C82.5,79,81.3,77.7,79.7,77.7z"/>
		<g>
			<path class="st2" d="M70.6,118.9c1.6,0,2.8-1.3,2.8-2.8V88.8c0-1.6-1.3-2.8-2.8-2.8c-1.6,0-2.8,1.3-2.8,2.8V116
				C67.8,117.6,69,118.9,70.6,118.9z"/>
		</g>
	</g>
</g>
</svg>
