<?xml version="1.0" encoding="utf-8"?>
<!-- Generator: Adobe Illustrator 22.0.1, SVG Export Plug-In . SVG Version: 6.00 Build 0)  -->
<svg version="1.1" id="Capa_1" xmlns="http://www.w3.org/2000/svg" xmlns:xlink="http://www.w3.org/1999/xlink" x="0px" y="0px"
	 viewBox="0 0 87.1 87.1" style="enable-background:new 0 0 87.1 87.1;" xml:space="preserve">
<style type="text/css">
	.st0{fill:#5488C7;}
	.st1{fill:#FFFFFF;}
	.st2{fill:#EF7D00;}
	.st3{fill:none;stroke:#FFFFFF;stroke-width:5.0017;stroke-miterlimit:10;}
	.st4{fill:none;stroke:#FFFFFF;stroke-width:3.5012;stroke-miterlimit:10;}
	.st5{fill:#FFFFFF;stroke:#FFFFFF;stroke-width:3.3345;stroke-miterlimit:10;}
	.st6{fill:none;stroke:#FFFFFF;stroke-width:3.2737;stroke-miterlimit:10;}
	.st7{fill:none;stroke:#FFFFFF;stroke-width:2.2916;stroke-miterlimit:10;}
	.st8{fill:#FFFFFF;stroke:#FFFFFF;stroke-width:2.1825;stroke-miterlimit:10;}
	.st9{fill:#5488C7;stroke:#02060A;stroke-width:0.6242;stroke-miterlimit:10;}
	.st10{fill:#5488C7;stroke:#191D20;stroke-width:0.6242;stroke-miterlimit:10;}
	.st11{fill:#5488C7;stroke:#303337;stroke-width:0.6242;stroke-miterlimit:10;}
	.st12{fill:#5488C7;stroke:#474A4D;stroke-width:0.6242;stroke-miterlimit:10;}
	.st13{fill:#5488C7;stroke:#5E6163;stroke-width:0.6242;stroke-miterlimit:10;}
	.st14{fill:#5488C7;stroke:#757779;stroke-width:0.6242;stroke-miterlimit:10;}
	.st15{fill:#5488C7;stroke:#8C8E90;stroke-width:0.6242;stroke-miterlimit:10;}
	.st16{fill:#5488C7;stroke:#A3A4A6;stroke-width:0.6242;stroke-miterlimit:10;}
	.st17{fill:#5488C7;stroke:#BABBBC;stroke-width:0.6242;stroke-miterlimit:10;}
	.st18{fill:#5488C7;stroke:#D1D2D2;stroke-width:0.6242;stroke-miterlimit:10;}
	.st19{fill:#5488C7;stroke:#E8E8E9;stroke-width:0.6242;stroke-miterlimit:10;}
	.st20{fill:#5488C7;stroke:#FFFFFF;stroke-width:0.6242;stroke-miterlimit:10;}
	.st21{fill:#FFFFFF;stroke:#5488C7;stroke-width:3;stroke-linecap:round;stroke-miterlimit:10;}
	.st22{fill:#F3F3F3;}
	.st23{fill:none;stroke:#F4F4F4;stroke-width:1.8063;stroke-miterlimit:10;}
	.st24{fill:none;stroke:#F4F4F4;stroke-width:4;stroke-linecap:round;stroke-miterlimit:10;}
</style>
<g>
	<path class="st1" d="M16.3,49.2v37.7c0.9,0.1,1.8,0.2,2.7,0.2h2.7V49h-2.7C18.1,49,17.2,49.1,16.3,49.2z M65.4,49v38.1h2.7
		c0.9,0,1.8-0.1,2.7-0.2V49.2C69.9,49.1,69,49,68.1,49H65.4z M87.1,43.6C87.1,19.5,67.6,0,43.6,0C19.5,0,0,19.5,0,43.6
		c0,5.2,0.9,10.2,2.6,14.9C1,61.3,0,64.6,0,68.1c0,7.6,4.5,14.2,10.9,17.2V50.8c-1.7,0.8-3.3,1.9-4.7,3.1c-0.5-2.5-0.8-5.1-0.8-7.7
		c0-21.1,17.1-38.1,38.1-38.1c21.1,0,38.1,17.1,38.1,38.1c0,2.6-0.3,5.2-0.8,7.7c-1.4-1.3-3-2.3-4.7-3.1v34.5
		c6.4-3.1,10.9-9.6,10.9-17.2c0-3.5-1-6.8-2.6-9.6C86.2,53.8,87.1,48.8,87.1,43.6z"/>
	<path class="st1" d="M30.3,70.1v-7.5c0-1-0.8-1.9-1.9-1.9c-1,0-1.9,0.8-1.9,1.9v7.5c0,1,0.8,1.9,1.9,1.9
		C29.4,72,30.3,71.1,30.3,70.1z"/>
	<g>
		<path class="st2" d="M36.3,77.9V56.1c0-1-0.8-1.9-1.9-1.9c-1,0-1.9,0.8-1.9,1.9v21.8c0,1,0.8,1.9,1.9,1.9
			C35.5,79.7,36.3,78.9,36.3,77.9z"/>
	</g>
	<path class="st1" d="M42.3,74.7v-12c0-1-0.8-1.9-1.9-1.9c-1,0-1.9,0.8-1.9,1.9v12c0,1,0.8,1.9,1.9,1.9
		C41.5,76.5,42.3,75.7,42.3,74.7z"/>
	<g>
		<path class="st2" d="M58.7,64.5c-1,0-1.9,0.8-1.9,1.9v10.4c0,1,0.8,1.9,1.9,1.9c1,0,1.9-0.8,1.9-1.9V66.4
			C60.6,65.3,59.7,64.5,58.7,64.5z"/>
	</g>
	<path class="st1" d="M52.7,51.4c-1,0-1.9,0.8-1.9,1.9v28.3c0,1,0.8,1.9,1.9,1.9c1,0,1.9-0.8,1.9-1.9V53.3
		C54.6,52.2,53.7,51.4,52.7,51.4z"/>
	<g>
		<path class="st2" d="M46.7,78.6c1,0,1.9-0.8,1.9-1.9v-18c0-1-0.8-1.9-1.9-1.9c-1,0-1.9,0.8-1.9,1.9v18
			C44.8,77.8,45.6,78.6,46.7,78.6z"/>
	</g>
</g>
</svg>
